<svg xmlns="http://www.w3.org/2000/svg" viewBox="0 0 56.36 100.7">
  <defs>
    <style>
      .cls-1 {
        fill: #f4984a;
      }

      .cls-2 {
        fill: #4d4d4d;
      }

      .cls-3 {
        fill: #fff;
      }

      .cls-4 {
        fill: #ff738e;
      }

      .cls-5 {
        fill: #94afff;
      }

      .cls-6 {
        fill: #b9c9ff;
      }
    </style>
  </defs>
  <title>Middel 1</title>
  <g id="Laag_2" data-name="Laag 2">
    <g id="Laag_1-2" data-name="Laag 1">
      <g>
        <path class="cls-1" d="M53.86,25.71a2.44,2.44,0,0,0-1.33.39V18.51H3.5v7.41a2.39,2.39,0,0,0-1-.21A2.49,2.49,0,0,0,0,28.21v7.5A2.49,2.49,0,0,0,3.53,38a24.51,24.51,0,0,0,49-.18,2.47,2.47,0,0,0,1.36.41,2.5,2.5,0,0,0,2.5-2.5v-7.5A2.49,2.49,0,0,0,53.86,25.71Z"/>
        <path class="cls-2" d="M3.5,18.51C3.5,5,14.48,0,28,0S52.53,5,52.53,18.51Z"/>
        <circle class="cls-2" cx="17.53" cy="34.85" r="3.35"/>
        <g>
          <circle class="cls-2" cx="25.83" cy="41.55" r="0.83"/>
          <circle class="cls-2" cx="30.36" cy="41.55" r="0.83"/>
        </g>
        <circle class="cls-3" cx="18.53" cy="33.85" r="0.73"/>
        <circle class="cls-2" cx="38.66" cy="34.85" r="3.35"/>
        <path class="cls-4" d="M27,47.82a4.39,4.39,0,0,0,0,8.77h2.36a4.39,4.39,0,0,0,0-8.77Z"/>
        <path class="cls-2" d="M27.38,49.24a3,3,0,0,0,0,5.93H29a3,3,0,0,0,0-5.93Z"/>
        <path class="cls-3" d="M31.34,50.44A3,3,0,0,0,29,49.24h-1.6A3,3,0,0,0,25,50.44Z"/>
        <polygon class="cls-2" points="28.02 10.45 3.5 18.52 3.5 28.72 6.17 27.73 7.92 21.42 12.69 24.79 14.89 20.05 20.5 24.17 22.95 20.28 28.02 23.65 33.09 20.28 35.53 24.17 41.13 20.05 43.34 24.79 48.11 21.42 49.86 27.73 52.53 28.72 52.53 18.52 28.02 10.45"/>
        <circle class="cls-3" cx="39.66" cy="33.85" r="0.73"/>
        <polygon class="cls-5" points="30.59 62.65 25.77 62.65 23.36 66.82 25.77 71 30.59 71 33 66.82 30.59 62.65"/>
        <polygon class="cls-5" points="34.12 92.23 28.23 100.7 22.24 92.23 25.93 72.34 30.43 72.34 34.12 92.23"/>
        <polygon class="cls-6" points="32.24 82.06 32.61 84.08 25.14 76.61 25.4 75.22 32.24 82.06"/>
        <polygon class="cls-6" points="32.92 85.74 33.3 87.77 24.67 79.14 24.93 77.75 32.92 85.74"/>
      </g>
    </g>
  </g>
</svg>
