<svg xmlns="http://www.w3.org/2000/svg" viewBox="0 0 59.09 72.74">
  <title>Asset 1</title>
  <g id="Layer_2" data-name="Layer 2">
    <g id="Layer_1-2" data-name="Layer 1">
      <g>
        <path d="M53.09,48.22A23.56,23.56,0,1,1,6,50.12c0-.63,0-1.27,0-1.9V34.76H53.09Z" style="fill: #ffe0e4"/>
        <circle cx="19.46" cy="46.36" r="3.22" style="fill: #4d4d4d"/>
        <circle cx="27.44" cy="52.8" r="0.8" style="fill: #4d4d4d"/>
        <circle cx="31.8" cy="52.8" r="0.8" style="fill: #4d4d4d"/>
        <path d="M7.43,40a2.41,2.41,0,0,0-4.81,0v7.21a2.41,2.41,0,0,0,4.81,0Z" style="fill: #ffe0e4"/>
        <path d="M56.79,40A2.4,2.4,0,0,0,52,40v7.21a2.4,2.4,0,0,0,4.8,0Z" style="fill: #ffe0e4"/>
        <circle cx="20.68" cy="46.36" r="0.7" style="fill: #fff"/>
        <circle cx="39.78" cy="46.36" r="3.22" style="fill: #4d4d4d"/>
        <g>
          <path d="M30.68,67.28a4.21,4.21,0,0,0,0-8.42H28.41a4.21,4.21,0,1,0,0,8.42Z" style="fill: #ff738e"/>
          <path d="M29.84,65.89a2.88,2.88,0,1,0,.94-5.69,2.48,2.48,0,0,0-.94,0H28.31a2.88,2.88,0,0,0,0,5.69Z" style="fill: #4d4d4d"/>
          <path d="M22.27,61.63a4.23,4.23,0,0,1,4.22-4.22h6.12a4.22,4.22,0,0,1,4.21,4.22Z" style="fill: #4d4d4d"/>
          <path d="M26.5,64.74a2.89,2.89,0,0,0,2.28,1.15h1.54a2.88,2.88,0,0,0,2.27-1.15Z" style="fill: #fff"/>
        </g>
        <polygon points="29.55 34.76 5.99 34.76 5.99 44.58 8.55 43.63 10.23 37.55 14.82 40.8 16.93 36.24 22.33 40.19 24.67 36.47 29.55 39.7 34.42 36.47 36.76 40.19 42.16 36.24 44.27 40.8 48.86 37.55 50.54 43.63 53.11 44.58 53.11 34.76 29.55 34.76" style="fill: #4d4d4d"/>
        <path d="M53.11,28.15a23.38,23.38,0,0,0-4.6-14V9.67A29,29,0,0,0,38.14,2.83V6.21A23.51,23.51,0,0,0,21,6.21V2.83A29,29,0,0,0,10.57,9.67v4.5A23.36,23.36,0,0,0,6,28.15Z" style="fill: #ffffd1"/>
        <circle cx="29.54" cy="4.98" r="4.98" style="fill: #ffd28b"/>
        <path d="M10.06,9.17l-.2.21V20.49H11.3V9.92A28.74,28.74,0,0,1,15,6.77V20.49h1.45V5.85a29.19,29.19,0,0,1,3.73-1.92V20.49h1.45V1.78l-1,.37A29.79,29.79,0,0,0,10.06,9.17Z" style="fill: #ffc38b"/>
        <path d="M49,9.17a29.84,29.84,0,0,0-10.57-7l-1-.37V20.49h1.46V3.9a28.54,28.54,0,0,1,3.73,1.92V20.49h1.45V6.81A28.08,28.08,0,0,1,47.85,10V20.54h1.46V9.38Z" style="fill: #ffc38b"/>
        <rect y="28.15" width="59.09" height="6.98" style="fill: #ffc38b"/>
        <circle cx="40.99" cy="46.36" r="0.7" style="fill: #fff"/>
      </g>
    </g>
  </g>
</svg>
