<svg xmlns="http://www.w3.org/2000/svg" viewBox="0 0 59.09 72.74"><g id="Layer_2" data-name="Layer 2"><g id="Layer_1-2" data-name="Layer 1"><g><path d="M53.09 48.22A23.56 23.56 0 1 1 6 50.12V34.76h47.09z" fill="#ffe0e4"/><circle cx="19.46" cy="46.36" r="3.22" fill="#4d4d4d"/><circle cx="27.44" cy="52.8" r=".8" fill="#4d4d4d"/><circle cx="31.8" cy="52.8" r=".8" fill="#4d4d4d"/><path d="M7.43 40a2.41 2.41 0 0 0-4.81 0v7.21a2.41 2.41 0 0 0 4.81 0zM56.79 40A2.4 2.4 0 0 0 52 40v7.21a2.4 2.4 0 0 0 4.8 0z" fill="#ffe0e4"/><circle cx="20.68" cy="46.36" r=".7" fill="#fff"/><circle cx="39.78" cy="46.36" r="3.22" fill="#4d4d4d"/><g><path d="M30.68 67.28a4.21 4.21 0 0 0 0-8.42h-2.27a4.21 4.21 0 1 0 0 8.42z" fill="#ff738e"/><path d="M29.84 65.89a2.88 2.88 0 1 0 .94-5.69 2.48 2.48 0 0 0-.94 0h-1.53a2.88 2.88 0 0 0 0 5.69z" fill="#4d4d4d"/><path d="M22.27 61.63a4.23 4.23 0 0 1 4.22-4.22h6.12a4.22 4.22 0 0 1 4.21 4.22z" fill="#4d4d4d"/><path d="M26.5 64.74a2.89 2.89 0 0 0 2.28 1.15h1.54a2.88 2.88 0 0 0 2.27-1.15z" fill="#fff"/></g><path fill="#4d4d4d" d="M29.55 34.76H5.99v9.82l2.56-.95 1.68-6.08 4.59 3.25 2.11-4.56 5.4 3.95 2.34-3.72 4.88 3.23 4.87-3.23 2.34 3.72 5.4-3.95 2.11 4.56 4.59-3.25 1.68 6.08 2.57.95v-9.82H29.55z"/><path d="M53.11 28.15a23.38 23.38 0 0 0-4.6-14V9.67a29 29 0 0 0-10.37-6.84v3.38a23.51 23.51 0 0 0-17.14 0V2.83a29 29 0 0 0-10.43 6.84v4.5A23.36 23.36 0 0 0 6 28.15z" fill="#ffffd1"/><circle cx="29.54" cy="4.98" r="4.98" fill="#ffd28b"/><path d="M10.06 9.17l-.2.21v11.11h1.44V9.92A28.74 28.74 0 0 1 15 6.77v13.72h1.45V5.85a29.19 29.19 0 0 1 3.73-1.92v16.56h1.45V1.78l-1 .37a29.79 29.79 0 0 0-10.57 7.02zM49 9.17a29.84 29.84 0 0 0-10.57-7l-1-.37v18.69h1.46V3.9a28.54 28.54 0 0 1 3.73 1.92v14.67h1.45V6.81A28.08 28.08 0 0 1 47.85 10v10.54h1.46V9.38zM0 28.15h59.09v6.98H0z" fill="#ffc38b"/><circle cx="40.99" cy="46.36" r=".7" fill="#fff"/></g></g></g></svg>
