<svg xmlns="http://www.w3.org/2000/svg" viewBox="0 0 29.23 29.23">
  <title>Asset 4</title>
  <g id="Layer_2" data-name="Layer 2">
    <g id="TEKST">
      <g>
        <circle cx="14.61" cy="14.61" r="14.15" style="fill: #ffffd1;stroke: #4d4d4d;stroke-miterlimit: 10;stroke-width: 0.920976579189301px"/>
        <circle cx="8.92" cy="13.28" r="2.39" style="fill: #4d4d4d"/>
        <g>
          <circle cx="13.43" cy="16.43" r="0.44" style="fill: #4d4d4d"/>
          <circle cx="15.8" cy="16.43" r="0.44" style="fill: #4d4d4d"/>
        </g>
        <circle cx="8.92" cy="13.28" r="0.52" style="fill: #fff"/>
        <circle cx="20.31" cy="13.28" r="2.39" style="fill: #4d4d4d"/>
        <path d="M17.12,24.31a2.3,2.3,0,1,0,0-4.59H12.2a2.3,2.3,0,1,0,0,4.59Z" style="fill: #4d4d4d"/>
        <path d="M16.92,23.57a1.56,1.56,0,0,0,0-3.11H12.4a1.56,1.56,0,0,0,0,3.11Z" style="fill: #4d4d4d"/>
        <circle cx="20.31" cy="13.28" r="0.52" style="fill: #fff"/>
        <rect x="6.44" y="8.34" width="4.95" height="1.21" transform="translate(3.07 -2.25) rotate(17.32)" style="fill: #4d4d4d"/>
        <rect x="17.84" y="8.34" width="4.95" height="1.21" transform="translate(42.37 11.43) rotate(162.68)" style="fill: #4d4d4d"/>
      </g>
    </g>
  </g>
</svg>
