<svg xmlns="http://www.w3.org/2000/svg" viewBox="0 0 69.1 44.99"><g id="Layer_2" data-name="Layer 2"><g id="TEKST"><path d="M51.56 16a16.29 16.29 0 0 0-9.41 2.92A20 20 0 1 0 38.06 35a15.3 15.3 0 0 0 13.5 7.46c8.3 0 15-5.93 15-13.25S59.86 16 51.56 16z" fill="#ffc38b" stroke="#ffc38b" stroke-linecap="round" stroke-linejoin="round" stroke-width="5"/><circle cx="22.49" cy="22.49" r="19.99" fill="#fd748f" stroke="#4d4d4d" stroke-miterlimit="10" stroke-width="1.5"/><circle cx="14.44" cy="20.61" r="3.37" fill="#4d4d4d"/><circle cx="20.82" cy="25.06" r=".61" fill="#4d4d4d"/><circle cx="24.17" cy="25.06" r=".61" fill="#4d4d4d"/><circle cx="14.44" cy="20.61" r=".74" fill="#fff"/><circle cx="30.54" cy="20.61" r="3.37" fill="#4d4d4d"/><path d="M26 36.19a3.25 3.25 0 1 0 0-6.49h-7a3.25 3.25 0 0 0 0 6.49z" fill="#4d4d4d"/><path d="M25.75 35.14a2.2 2.2 0 0 0 0-4.39h-6.38a2.2 2.2 0 1 0 0 4.39z" fill="#4d4d4d"/><circle cx="30.54" cy="20.61" r=".74" fill="#fff"/><path transform="rotate(17.32 14.4345414 14.49571998)" fill="#4d4d4d" d="M10.95 13.63h7v1.7h-7z"/><path transform="rotate(162.68 30.5420903 14.47958875)" fill="#4d4d4d" d="M27.05 13.63h7v1.7h-7z"/><path d="M51.56 16c-8.31 0-15 5.93-15 13.25v.48l-3.39 3.34 4.19.49c2 5.2 7.62 8.94 14.21 8.94 8.3 0 15-5.93 15-13.25S59.86 16 51.56 16z" fill="#fff" stroke="#4d4d4d" stroke-miterlimit="10" stroke-width="1.5"/><text transform="translate(40.7 30.75)" font-size="5.42320013" fill="#4d4d4d" font-family="FrankfurterPlain,Frankfurter" letter-spacing=".10002959em">ARGGH!</text></g></g></svg>