<svg xmlns="http://www.w3.org/2000/svg" viewBox="0 0 69.1 44.99"><g id="Layer_2" data-name="Layer 2"><g id="TEKST"><path d="M51.56 16a16.29 16.29 0 0 0-9.41 2.92A20 20 0 1 0 38.06 35a15.3 15.3 0 0 0 13.5 7.46c8.3 0 15-5.93 15-13.25S59.86 16 51.56 16z" fill="#ffc38b" stroke="#ffc38b" stroke-linecap="round" stroke-linejoin="round" stroke-width="5"/><circle cx="22.49" cy="22.49" r="19.99" fill="#ffffd1" stroke="#4d4d4d" stroke-miterlimit="10" stroke-width="1.5"/><circle cx="14.44" cy="19.61" r="3.37" fill="#4d4d4d"/><circle cx="20.82" cy="26.06" r=".61" fill="#4d4d4d"/><circle cx="24.17" cy="26.06" r=".61" fill="#4d4d4d"/><circle cx="15.44" cy="20.61" r=".74" fill="#fff"/><circle cx="30.54" cy="19.61" r="3.37" fill="#4d4d4d"/><circle cx="31.54" cy="20.61" r=".74" fill="#fff"/><path d="M28.78 33.27a12.37 12.37 0 0 1-11.81 0" fill="#ffffd1" stroke="#4d4d4d" stroke-miterlimit="10" stroke-width="2"/><path d="M10.2 15.17a9.19 9.19 0 0 1 4.16-1.75 9.59 9.59 0 0 1 2.2-.07M34.79 15.17a9.23 9.23 0 0 0-4.16-1.75 9.59 9.59 0 0 0-2.2-.07" fill="#ffffd1" stroke="#4d4d4d" stroke-miterlimit="10" stroke-width="1.48301542"/><path d="M51.56 16c-8.31 0-15 5.93-15 13.25v.48l-3.39 3.34 4.19.49c2 5.2 7.62 8.94 14.21 8.94 8.3 0 15-5.93 15-13.25S59.86 16 51.56 16z" fill="#fff" stroke="#4d4d4d" stroke-miterlimit="10" stroke-width="1.5"/><text transform="translate(42.49 31.55)" font-size="8.20536041" fill="#4d4d4d" font-family="FrankfurterPlain,Frankfurter" letter-spacing=".02695694em">YA<tspan x="11" y="0" letter-spacing=".09997276em">Y!</tspan></text><path d="M17.26 31.11a3.51 3.51 0 0 1-1.5 3.82" fill="#ffffd1" stroke="#4d4d4d" stroke-miterlimit="10"/></g></g></svg>