<svg xmlns="http://www.w3.org/2000/svg" viewBox="0 0 56.36 100.7"><defs><style>.cls-2{fill:#4d4d4d}.cls-3{fill:#fff}.cls-5{fill:#94afff}.cls-6{fill:#b9c9ff}</style></defs><g id="Laag_2" data-name="Laag 2"><g id="Laag_1-2" data-name="Laag 1"><path d="M53.86 25.71a2.44 2.44 0 0 0-1.33.39v-7.59H3.5v7.41a2.39 2.39 0 0 0-1-.21 2.49 2.49 0 0 0-2.5 2.5v7.5A2.49 2.49 0 0 0 3.53 38a24.51 24.51 0 0 0 49-.18 2.47 2.47 0 0 0 1.36.41 2.5 2.5 0 0 0 2.5-2.5v-7.5a2.49 2.49 0 0 0-2.53-2.52z" fill="#f4984a"/><path class="cls-2" d="M3.5 18.51C3.5 5 14.48 0 28 0s24.53 5 24.53 18.51z"/><circle class="cls-2" cx="17.53" cy="34.85" r="3.35"/><circle class="cls-2" cx="25.83" cy="41.55" r=".83"/><circle class="cls-2" cx="30.36" cy="41.55" r=".83"/><circle class="cls-3" cx="18.53" cy="33.85" r=".73"/><circle class="cls-2" cx="38.66" cy="34.85" r="3.35"/><path d="M27 47.82a4.39 4.39 0 0 0 0 8.77h2.36a4.39 4.39 0 0 0 0-8.77z" fill="#ff738e"/><path class="cls-2" d="M27.38 49.24a3 3 0 0 0 0 5.93H29a3 3 0 0 0 0-5.93z"/><path class="cls-3" d="M31.34 50.44a3 3 0 0 0-2.34-1.2h-1.6a3 3 0 0 0-2.4 1.2z"/><path class="cls-2" d="M28.02 10.45L3.5 18.52v10.2l2.67-.99 1.75-6.31 4.77 3.37 2.2-4.74 5.61 4.12 2.45-3.89 5.07 3.37 5.07-3.37 2.44 3.89 5.6-4.12 2.21 4.74 4.77-3.37 1.75 6.31 2.67.99v-10.2l-24.51-8.07z"/><circle class="cls-3" cx="39.66" cy="33.85" r=".73"/><path class="cls-5" d="M30.59 62.65h-4.82l-2.41 4.17L25.77 71h4.82L33 66.82l-2.41-4.17zM34.12 92.23l-5.89 8.47-5.99-8.47 3.69-19.89h4.5l3.69 19.89z"/><path class="cls-6" d="M32.24 82.06l.37 2.02-7.47-7.47.26-1.39 6.84 6.84zM32.92 85.74l.38 2.03-8.63-8.63.26-1.39 7.99 7.99z"/></g></g></svg>