<svg xmlns="http://www.w3.org/2000/svg" viewBox="0 0 29.23 29.23">
  <title>Asset 5</title>
  <g id="Layer_2" data-name="Layer 2">
    <g id="TEKST">
      <g>
        <circle cx="14.61" cy="14.61" r="14.15" style="fill: #ffffd1;stroke: #4d4d4d;stroke-miterlimit: 10;stroke-width: 0.920976579189301px"/>
        <circle cx="14.61" cy="14.61" r="10.1" style="fill: #d9d9d9;stroke: #4d4d4d;stroke-miterlimit: 10;stroke-width: 0.920976579189301px"/>
        <path d="M17.7,17.5a.33.33,0,0,0-.13-.19.26.26,0,0,0-.23,0,4.5,4.5,0,0,1-.84.22,5.42,5.42,0,0,1-.89.07A3.17,3.17,0,0,1,14,17.21a2.13,2.13,0,0,1-.71-.72h2.31a.26.26,0,0,0,.26-.26v-1a.26.26,0,0,0-.26-.26H12.83v-.79h2.73a.26.26,0,0,0,.26-.26V13a.26.26,0,0,0-.26-.26h-2.3A2.12,2.12,0,0,1,14,12a3.13,3.13,0,0,1,1.64-.38,5.42,5.42,0,0,1,.89.07,4,4,0,0,1,.84.22.3.3,0,0,0,.23,0,.33.33,0,0,0,.13-.19l.18-1.05a.28.28,0,0,0-.16-.29,4.43,4.43,0,0,0-1-.3A6.32,6.32,0,0,0,15.45,10a4.82,4.82,0,0,0-2.72.76,4,4,0,0,0-1.57,2H10a.26.26,0,0,0-.26.26v1a.26.26,0,0,0,.26.26h.87v0c0,.11,0,.23,0,.35s0,.25,0,.36v0H10a.26.26,0,0,0-.26.26v1a.26.26,0,0,0,.26.26h1.16a3.93,3.93,0,0,0,1.57,2,4.82,4.82,0,0,0,2.72.76,7.21,7.21,0,0,0,1.23-.11,4.42,4.42,0,0,0,1-.31.26.26,0,0,0,.16-.28Z" style="fill: #4d4d4d"/>
      </g>
    </g>
  </g>
</svg>
