<svg xmlns="http://www.w3.org/2000/svg" viewBox="0 0 68.69 51.73"><g id="Layer_2" data-name="Layer 2"><g id="TEKST"><path d="M28.15 34.88l6-4.36-3.91-4.78 4.17-3.81-4.72-4 4.06-4-4.68-3.21L31 5.48C21 6.47 12.76 12 9.73 19.42l-.88-.2a2.83 2.83 0 0 0 .9-3.45A3.53 3.53 0 0 0 5.07 14a4.41 4.41 0 0 0-2.17 5.87A5.51 5.51 0 0 0 8.7 23a16 16 0 0 0-.23 2.69c0 5.86 3.14 11.4 8.63 15.27v7.14a1.1 1.1 0 0 0 1.1 1.1h10a1.09 1.09 0 0 0 1.09-1.1v-2.34a31.26 31.26 0 0 0 4 .33l-1.61-5.67L34.77 38zM65.32 23.58l-3.81-.79a19.12 19.12 0 0 0-7.1-11.38c2-1.31 3.83-3.06 3.48-5-.3-1.63-2.07-2.8-5.26-3.47a18.9 18.9 0 0 0-6.4-.32A5.75 5.75 0 0 0 42 5.87a32.39 32.39 0 0 0-5.9-.55h-.47L34.1 9.71l5.57 3.82-4.26 4.25 4.81 4.09L35.7 26l4.09 5-4.74 3.43 6.45 3-5 3.92 1.34 4.71a29.48 29.48 0 0 0 3.11-.3v2.37a1.1 1.1 0 0 0 1.1 1.1h10a1.09 1.09 0 0 0 1.09-1.1V41a21.84 21.84 0 0 0 6-6.26l3.71.77a1.08 1.08 0 0 0 .82-.15 1.11 1.11 0 0 0 .47-.7l2-9.78a1.09 1.09 0 0 0-.82-1.3z" fill="#ffc38b" stroke="#ffc38b" stroke-linecap="round" stroke-linejoin="round" stroke-width="5"/><path d="M5.37 18.4a2.25 2.25 0 0 0 3 1.11 2.83 2.83 0 0 0 1.39-3.74A3.53 3.53 0 0 0 5.07 14a4.41 4.41 0 0 0-2.17 5.87 5.51 5.51 0 0 0 7.3 2.72l4.25-2.05" fill="none" stroke="#4d4d4d" stroke-miterlimit="10" stroke-width="2.07846329"/><path d="M31.66 40.42L34.77 38l-6.62-3.09 6-4.36-3.91-4.78 4.17-3.81-4.72-4 4.06-4-4.68-3.21L31 5.48C18.3 6.73 8.47 15.33 8.47 25.72c0 5.86 3.14 11.4 8.63 15.27v7.14a1.1 1.1 0 0 0 1.1 1.1h10a1.09 1.09 0 0 0 1.09-1.1v-2.37a31.26 31.26 0 0 0 4 .33zM65.32 23.58l-3.81-.79a19.12 19.12 0 0 0-7.1-11.38c2-1.31 3.83-3.06 3.48-5-.3-1.63-2.07-2.8-5.26-3.47a18.9 18.9 0 0 0-6.4-.32A5.75 5.75 0 0 0 42 5.87a32.39 32.39 0 0 0-5.9-.55h-.47L34.1 9.71l5.57 3.82-4.26 4.25 4.81 4.09L35.7 26l4.09 5-4.74 3.43 6.45 3-5 3.92 1.34 4.71a29.48 29.48 0 0 0 3.11-.3v2.37a1.1 1.1 0 0 0 1.1 1.1h10a1.09 1.09 0 0 0 1.09-1.1V41a21.71 21.71 0 0 0 6-6.26l3.71.77a1.08 1.08 0 0 0 .82-.15 1.11 1.11 0 0 0 .47-.7l2-9.78a1.09 1.09 0 0 0-.82-1.3z" fill="#ffb9e4" stroke="#4d4d4d" stroke-miterlimit="10" stroke-width="1.5"/><circle cx="52.23" cy="19.5" r="1.65" fill="#4d4d4d"/><path d="M16.47 14.9a22 22 0 0 1 7-4.71" fill="#ffb9e4" stroke="#4d4d4d" stroke-miterlimit="10" stroke-width="1.24707797"/></g></g></svg>