<svg xmlns="http://www.w3.org/2000/svg" viewBox="0 0 70.85 49.17"><g id="Layer_2" data-name="Layer 2"><g id="TEKST"><path d="M64.76 32.38V8.65h-5.11a7.75 7.75 0 0 0-15.17 0H2.5v31.58h4.6a8.64 8.64 0 0 0 .19.85 7.76 7.76 0 0 0 15.09-.85H53a7.76 7.76 0 1 0 11.81-7.85z" fill="#ffc38b" stroke="#ffc38b" stroke-linecap="round" stroke-linejoin="round" stroke-width="5"/><path fill="#b9c9ff" d="M2.5 8.65h62.26v31.58H2.5z"/><circle cx="33.3" cy="25.24" r="12.21" fill="#fff"/><path fill="#fff" d="M2.5 8.65h9.89v31.58H2.5zM54.87 8.65h9.89v31.58h-9.89z"/><path d="M37.69 29.73a.45.45 0 0 0-.21-.29.39.39 0 0 0-.35 0 6.81 6.81 0 0 1-1.31.35 9.27 9.27 0 0 1-1.38.11 4.84 4.84 0 0 1-2.57-.6 3.22 3.22 0 0 1-1.11-1.12h3.6a.41.41 0 0 0 .41-.41v-1.51a.41.41 0 0 0-.41-.41h-4.25v-1.22h4.25a.41.41 0 0 0 .41-.41v-1.49a.41.41 0 0 0-.41-.41h-3.59a3.27 3.27 0 0 1 1.11-1.11 4.8 4.8 0 0 1 2.56-.61 9.27 9.27 0 0 1 1.38.11 7 7 0 0 1 1.31.35.39.39 0 0 0 .35 0 .45.45 0 0 0 .21-.29l.31-1.66a.4.4 0 0 0-.24-.44 7.53 7.53 0 0 0-1.63-.48 10.16 10.16 0 0 0-1.95-.19A7.52 7.52 0 0 0 30 19.21a6.25 6.25 0 0 0-2.44 3.11H25.7a.41.41 0 0 0-.41.41v1.49a.41.41 0 0 0 .41.41h1.35V25.85H25.7a.41.41 0 0 0-.41.41v1.49a.41.41 0 0 0 .41.41h1.81A6.19 6.19 0 0 0 30 31.28a7.54 7.54 0 0 0 4.23 1.18 10.16 10.16 0 0 0 1.92-.17 6.69 6.69 0 0 0 1.63-.48.4.4 0 0 0 .24-.44z" fill="#4d4d4d"/><path fill="#ffffd1" stroke="#4d4d4d" stroke-miterlimit="10" d="M7.52 11.86h9.75v4.65H7.52z"/><path fill="none" stroke="#4d4d4d" stroke-miterlimit="10" stroke-width="1.5" d="M2.5 8.65h62.26v31.58H2.5z"/><circle cx="60.59" cy="38.91" r="7.76" fill="#ffffd1" stroke="#4d4d4d" stroke-miterlimit="10"/><circle cx="60.59" cy="38.91" r="5.54" fill="#d9d9d9"/><path d="M63 41a.19.19 0 0 0-.09-.14.2.2 0 0 0-.17 0 2.49 2.49 0 0 1-.61.16 3.66 3.66 0 0 1-.65.06 2.35 2.35 0 0 1-1.21-.28 1.55 1.55 0 0 1-.52-.53h1.69a.19.19 0 0 0 .19-.19v-.7a.18.18 0 0 0-.19-.19h-2v-.58h2a.19.19 0 0 0 .19-.19v-.7a.19.19 0 0 0-.19-.2h-1.7a1.72 1.72 0 0 1 .52-.52 2.26 2.26 0 0 1 1.21-.28 4.87 4.87 0 0 1 .65.05 3 3 0 0 1 .61.16.17.17 0 0 0 .17 0 .2.2 0 0 0 .1-.13l.14-.77a.19.19 0 0 0-.12-.21 3.42 3.42 0 0 0-.76-.23 5.38 5.38 0 0 0-.9-.08 3.54 3.54 0 0 0-2 .56 3 3 0 0 0-1.15 1.46h-.85a.19.19 0 0 0-.19.2v.7a.19.19 0 0 0 .19.19H58v.58h-.64a.18.18 0 0 0-.19.19v.7a.19.19 0 0 0 .19.19h.85a2.92 2.92 0 0 0 1.15 1.47 3.54 3.54 0 0 0 2 .55 4.5 4.5 0 0 0 .9-.08A3.44 3.44 0 0 0 63 42a.2.2 0 0 0 .12-.21z" fill="#4d4d4d"/><g><circle cx="14.74" cy="38.91" r="7.76" fill="#ffffd1" stroke="#4d4d4d" stroke-miterlimit="10"/><circle cx="14.74" cy="38.91" r="5.54" fill="#d9d9d9"/><path d="M11.84 37.55a.23.23 0 0 0 .13.11.18.18 0 0 0 .16 0 4.21 4.21 0 0 1 .55-.33 4.49 4.49 0 0 1 .61-.23 2.3 2.3 0 0 1 1.23-.1 1.54 1.54 0 0 1 .65.36l-1.62.47a.2.2 0 0 0-.13.24l.19.67a.19.19 0 0 0 .24.14l1.92-.56.14.48-1.91.62a.19.19 0 0 0-.14.24l.2.67a.2.2 0 0 0 .24.13l1.64-.46a1.72 1.72 0 0 1-.35.65 2.24 2.24 0 0 1-1.08.6 4.56 4.56 0 0 1-.64.14 3.42 3.42 0 0 1-.64 0 .2.2 0 0 0-.15.06.23.23 0 0 0-.06.16l.09.77a.19.19 0 0 0 .17.17 3.55 3.55 0 0 0 .8 0 5.46 5.46 0 0 0 .88-.17 3.52 3.52 0 0 0 1.76-1.1 2.93 2.93 0 0 0 .69-1.72l.81-.24a.19.19 0 0 0 .14-.24l-.2-.67a.2.2 0 0 0-.24-.13l-.61.18c0-.08 0-.16-.07-.25s0-.17-.08-.25l.61-.17a.2.2 0 0 0 .13-.24l-.19-.67a.19.19 0 0 0-.24-.13l-.82.23a2.86 2.86 0 0 0-1.51-1.08 3.56 3.56 0 0 0-2.07 0 5.05 5.05 0 0 0-.84.33 3.23 3.23 0 0 0-.67.43.19.19 0 0 0-.05.23z" fill="#4d4d4d"/></g><g><circle cx="52.06" cy="10.26" r="7.76" fill="#ffffd1" stroke="#4d4d4d" stroke-miterlimit="10"/><circle cx="52.06" cy="10.26" r="5.54" fill="#d9d9d9"/><path d="M55.25 9.94a.25.25 0 0 0-.17 0A.2.2 0 0 0 55 10a3.37 3.37 0 0 1-.3.56 4 4 0 0 1-.41.51 2.2 2.2 0 0 1-1 .69 1.43 1.43 0 0 1-.74 0l1.15-1.23a.19.19 0 0 0 0-.27l-.51-.48a.19.19 0 0 0-.27 0l-1.43 1.52-.37-.34 1.36-1.46a.19.19 0 0 0 0-.28l-.58-.52a.18.18 0 0 0-.27 0l-1.15 1.24a1.54 1.54 0 0 1 0-.74 2.3 2.3 0 0 1 .62-1.07 3.39 3.39 0 0 1 .48-.44 3.06 3.06 0 0 1 .54-.34.19.19 0 0 0 .1-.13.23.23 0 0 0 0-.16l-.48-.62a.18.18 0 0 0-.23-.06 3.86 3.86 0 0 0-.68.4 5.59 5.59 0 0 0-.68.61 3.54 3.54 0 0 0-.94 1.84 2.86 2.86 0 0 0 .29 1.83l-.58.62a.19.19 0 0 0 0 .28l.51.47a.18.18 0 0 0 .27 0l.43-.46.19.18.19.17-.44.47a.19.19 0 0 0 0 .27l.51.48a.21.21 0 0 0 .28 0l.58-.63a2.89 2.89 0 0 0 1.85.17A3.65 3.65 0 0 0 55.06 12a5.37 5.37 0 0 0 .56-.72 3.65 3.65 0 0 0 .36-.71.2.2 0 0 0-.08-.22z" fill="#4d4d4d"/></g></g></g></svg>