<svg xmlns="http://www.w3.org/2000/svg" viewBox="0 0 45.38 62.89">
  <title>Asset 3</title>
  <g id="Layer_2" data-name="Layer 2">
    <g id="TEKST">
      <g>
        <rect x="-8.04" y="9.47" width="61.46" height="43.95" transform="translate(54.13 8.76) rotate(90)" style="fill: #fff;stroke: #4d4d4d;stroke-miterlimit: 10;stroke-width: 1.42986466150886px"/>
        <g id="jaxkCy.tif">
          <g>
            <path d="M26.6,22.24a1.08,1.08,0,0,0,1.08-.87A1,1,0,0,0,27,20.21a2.65,2.65,0,0,0-1.45,0c-.66.1-1.33.23-2,.31-.4,0-.67-.14-.71-.43a.56.56,0,0,1,.56-.66,4.05,4.05,0,0,1,1.1,0c.62.09,1.23.28,1.86.34,1,.1,1.36-.28,1.36-1.27,0-1.45,0-2.9,0-4.34,0-.43,0-.83.43-1.07,0,0,0-.05.05-.18l-.51.41-.94-.81-1.4,1v-1h-.1V19.4l-.79-.15v-.38c0-1.76,0-3.51,0-5.27a1,1,0,0,0-1-1.08,1.25,1.25,0,0,0-1.29,1,.85.85,0,0,0,0,.22l.11-.19c.08-.21.23-.41.45-.31a.64.64,0,0,1,.37.42c0,.63,0,1.26,0,1.89-1,.31-1.3.63-1.17,1.27.08.41.33.62.61.58,0-.16-.14-.41-.08-.47a2,2,0,0,1,.62-.28v2.67c-.65.34-.91.71-.87,1.25a1.26,1.26,0,0,0,1.39,1.17,11.09,11.09,0,0,0,1.52-.2c.41-.06.81-.16,1.22-.19a.6.6,0,0,1,.48.22c.05.15-.08.36-.14.54S26.64,22.2,26.6,22.24Zm-11.09-.88.26.09c.23.05.47.11.45.41s-.27.4-.6.36a5,5,0,0,1-.67-.14c-.6-.17-1.18-.38-1.79-.51a1.41,1.41,0,0,0-1.74,1.2.84.84,0,0,0,.68,1c-.29-.44-.24-.76.15-.88a.72.72,0,0,1,.41,0c1,.23,1.92.48,2.9.73,0,.35,0,.69,0,1s-.5.47-.65.85c.76.29.68.93.65,1.56,0,.19,0,.39,0,.59a.29.29,0,0,1-.12.23,2.25,2.25,0,0,1-2.53-.5c.49-.24,1-.47,1.46-.72.09,0,.22-.15.22-.23,0-.9,0-1.8,0-2.76l-2,.91-.09-.12,1.07-1.1a3.05,3.05,0,0,0-2.37,3.16,3,3,0,0,0,3.41,2.66,2.6,2.6,0,0,0,2.25-2.78,3.27,3.27,0,0,1-1.11,1.36,7.32,7.32,0,0,0,0-.95,1.09,1.09,0,0,1,.58-1.25s.06-.07.11-.13a5.27,5.27,0,0,1-.49-.4c-.08-.08-.18-.19-.18-.28,0-.38,0-.76,0-1.14,1-.28,1.46-.86,1.21-1.59A1.14,1.14,0,0,0,15.51,21.36Zm-.84-2.31,1.11.86c.31-.2.59-.41.89-.58a.37.37,0,0,1,.34,0,7.68,7.68,0,0,1,.78.47.32.32,0,0,0,.41,0c.6-.36,1.22-.71,1.82-1.08a.46.46,0,0,0,.2-.35c0-.73,0-1.46,0-2.19a.6.6,0,0,1,.32-.64,1,1,0,0,0,.22-.19l-.05-.06-.33.18-.79-.66-1,.87c.44.2.42.54.41.88,0,.79,0,1.57,0,2.36,0,.08,0,.15,0,.26-.27-.17-.5-.33-.75-.47a.44.44,0,0,1-.25-.44c0-.61,0-1.22,0-1.83,0-.29,0-.57.34-.71l-1-.92-.86.79c.12.24.3.43.3.63,0,.87,0,1.74,0,2.61a1.72,1.72,0,0,1-.06.32,8.2,8.2,0,0,1-.73-.53.59.59,0,0,1-.2-.39,15.32,15.32,0,0,1,0-1.66c.05-.75-.06-1.4-.84-1.74l0,0a.52.52,0,0,1,0-.88,1.11,1.11,0,0,0,.12-.15,1.32,1.32,0,0,0-1.18.78,1,1,0,0,0,.34,1.17,1.08,1.08,0,0,1,.4.92c0,.54,0,1.09,0,1.63s0,.74-.4.94c0,0,0,.05,0,.14Zm7.25,9.26c-.12-.19-.31-.36-.32-.53q0-1.29,0-2.58c0-.12.22-.29.36-.32s.63.58.63.79c0,.57,0,1.15,0,1.73,0,.33.05.68-.34.89l1,.84.88-.82c-.12-.19-.33-.35-.33-.52,0-.87,0-1.74,0-2.61,0-.11.18-.27.31-.3s.69.58.69.77v1.64c0,.33.09.7-.29.93l1,.91,1.29-.89-.05-.08-.3.15C26,28,26,28,26,27.43s0-1.14,0-1.7c0-.38-.06-.77.38-1a.58.58,0,0,1,0-.1l-.4.25L25,24c-.37.26-.71.49-1,.75a.26.26,0,0,1-.39,0c-.24-.25-.5-.47-.77-.72l-1.22.87L20.82,24l-1.19.84,0,.08.31-.13a1,1,0,0,1,.42.92c0,.54,0,1.09,0,1.63,0,.35.06.7-.34.93l1,.83ZM23.3,6.49V3L21.64,4.07c.47.22.48.57.48.94,0,1.3,0,2.59,0,3.89a.87.87,0,0,1-.45.94s-.06.07-.09.1l0,0,.29-.14.93.84,1.25-.83L24,9.77l-.31.16a.84.84,0,0,1-.43-.83c0-.71,0-1.42,0-2.13a.47.47,0,0,1,.34-.54c.49.28.85.61.72,1.26a4.33,4.33,0,0,0,0,.72c0,.69,0,1.39-.07,2.08a1.2,1.2,0,0,1-.83,1.11,1.24,1.24,0,0,0-.22.16l.22,0a1.84,1.84,0,0,0,2.06-1.87c.05-.85,0-1.7,0-2.55,0-.4-.07-.8.34-1.06l0-.07-.36.23-1-.88Zm6.78,13.4c.65-.4,1.29-.78,1.92-1.18a.43.43,0,0,0,.16-.29c0-.82,0-1.63,0-2.45A.38.38,0,0,0,32,15.7c-.41-.31-.83-.6-1.24-.9-.62.36-1.22.71-1.83,1a.42.42,0,0,0-.23.42c0,.6,0,1.2,0,1.8,0,.39,0,.78-.38,1l0,.06.34-.21ZM34.14,24c-.53.53-.72.54-1.3.13a.28.28,0,0,0-.25,0c-.55.28-1.09.58-1.64.89a.25.25,0,0,0-.11.16c0,.72-.26,1.53.64,2l0,0a8.21,8.21,0,0,0-.71,1.18.78.78,0,0,0,.51,1.09c-.2-.43-.08-.7.33-.68a1.64,1.64,0,0,1,.6.2.91.91,0,0,1,.24.2l1.62-1c.07,0,.17-.14.17-.2,0-.75.27-1.6-.69-2,0,0,0-.05-.06-.08A2.09,2.09,0,0,0,34.14,24Zm3.67-11.8-1.72,1.15c.54.17.53.55.53.92,0,1.29,0,2.57,0,3.86,0,.42,0,.77-.46,1,0,0-.06.07-.08.1l0,0,.29-.14.93.84,1.24-.83,0-.08-.31.16a.82.82,0,0,1-.42-.83c0-.42,0-.85,0-1.28ZM28.72,5.58c-.68.36-1.3.71-1.94,1a.4.4,0,0,0-.25.44c0,.59,0,1.19,0,1.79,0,.4,0,.79-.39,1l0,.06a.27.27,0,0,0,.11-.05c.2-.24.38-.17.6,0s.73.54,1.11.81l1.9-1.5-.08-.11-1,.79L28,9.2c-.37-.29-.36-.61,0-.87l1.75-1.18ZM10.57,18.87c.43.31.83.61,1.25.89a.33.33,0,0,0,.32,0c.55-.41,1.08-.84,1.62-1.27,0,0,.07-.1.11-.14l-.07-.07-1,.79L12,18.42c-.35-.28-.35-.62,0-.86l.87-.58.9-.61-1-1.57c-.7.37-1.37.73-2,1.1a.44.44,0,0,0-.14.32q0,.91,0,1.83c0,.4,0,.79-.39,1,0,0,0,0,0,.1Zm18.78,9.42-.83-.65c-.37-.3-.36-.61,0-.87l1.75-1.18-1-1.57c-.69.37-1.37.73-2,1.11a.35.35,0,0,0-.13.26c0,.82,0,1.65,0,2.48a.37.37,0,0,0,.1.25c.45.34.91.66,1.36,1l1.9-1.5-.08-.11Zm3.75-9.24,1,.85,1.3-.86,0-.12c-.24.2-.42.23-.66,0a.77.77,0,0,1-.23-.66c0-.7,0-1.4,0-2.1V15.8c.56.4.81.47,1.11.28a1.53,1.53,0,0,0,.58-1.22.68.68,0,0,1-1,0l-.73.8-.74-.78-1.23.86.06.08.31-.16a.93.93,0,0,1,.45.87c0,.65,0,1.31,0,2a1,1,0,0,1-.21.43,2,2,0,0,1-.31.26l0,.05Zm7.66.06-2-3c0-.06,0-.17,0-.28.48.3.91.51,1.39.16a1.2,1.2,0,0,0,.5-1.13c-.52.41-.64.41-1.4,0l-.84,1.3c-.18.29-.49.58-.49.86s.31.57.5.85c.45.7.92,1.39,1.39,2.11l1.41-1,0-.08ZM18.25,24l-1.2.85.06.08.3-.14a1,1,0,0,1,.39.89,17.22,17.22,0,0,0,0,1.76.74.74,0,0,1-.39.8c-.06,0-.09.1-.13.15l0,0,.27-.17.92.84,1.21-.83s0,0,0-.09l-.33.15C19,28,19,28,19,27.55c0-.64,0-1.28,0-1.92,0-.36,0-.67.37-.85l0-.09-.35.19Zm0-.48.9-.76-.77-.89-.91.77Z" style="fill: #4d4d4d"/>
            <path d="M20.29,2.83l.15.06c.58.16.87.48.87,1A1.16,1.16,0,0,1,20.48,5l-.44.1c0,.38,0,.76,0,1.14a.44.44,0,0,0,.15.26c.16.15.34.29.52.43,0,.06,0,.1-.07.11A1.19,1.19,0,0,0,20,8.46a7.64,7.64,0,0,1,0,.84A3.12,3.12,0,0,0,21.13,8l.09,0c0,.18,0,.35,0,.52a2.6,2.6,0,0,1-1.82,2.08A2.84,2.84,0,0,1,16.44,10,2.76,2.76,0,0,1,15.61,7a3.1,3.1,0,0,1,2.24-2.17l0,0L16.8,6l.09.11,2-.9c0,1,0,1.86,0,2.76,0,.08-.12.19-.21.23-.48.25-1,.48-1.47.72a2.26,2.26,0,0,0,2.53.5.37.37,0,0,0,.13-.28c0-.45,0-.9,0-1.34a.64.64,0,0,0-.18-.38A4.47,4.47,0,0,0,19.26,7c.14-.33.65-.36.64-.81s0-.69,0-1L17,4.42a.86.86,0,0,0-.32,0c-.49,0-.6.42-.29.9a.73.73,0,0,1-.66-.68,1.39,1.39,0,0,1,1.73-1.5c.61.12,1.21.35,1.82.52a3.32,3.32,0,0,0,.7.13c.25,0,.5,0,.53-.36s-.19-.34-.41-.41a1,1,0,0,1-.24-.18ZM17.65,6c-.86.21-.95.32-1,1.13v0a2.65,2.65,0,0,0,.53,1.72c.16-.16.43-.3.44-.45C17.68,7.6,17.65,6.8,17.65,6Z" style="fill: #4d4d4d"/>
            <path d="M4.14,19.25A1.6,1.6,0,0,1,5.7,18.2V16.38c-.2.06-.45.05-.55.17s-.06.36-.08.55c-.29,0-.56-.32-.6-.79,0-.63.24-.91,1.24-1.12a8.19,8.19,0,0,0,0-1.31c0-.17-.3-.36-.5-.43s-.28.2-.41.32a.68.68,0,0,0-.11.21,1.25,1.25,0,0,1,.43-1.32,1.05,1.05,0,0,1,1.31,0,3.05,3.05,0,0,1,.54.69c.74,1.25,1.46,2.52,2.19,3.78,0,.09.11.18.21.33V14.07l-1.12-.44L8,14l-.12-.12,1.17-1.37c.78.52,1,.49,1.56-.16.41.61-.05,1.31-1.13,1.68v5.83c-.24.13-.3-.05-.38-.18Q7.78,17.32,6.42,15a5.7,5.7,0,0,0-.54-.81c0,.08,0,.17,0,.25,0,1.18,0,2.35,0,3.53,0,.21.07.28.27.36a10.92,10.92,0,0,1,1.09.54l.19-.32.11.1L6.36,19.92a4.55,4.55,0,0,0-.67-.38.59.59,0,0,0-.76.27.49.49,0,0,0,.25.68,3.77,3.77,0,0,0,.38.15c-.59.17-1.09-.13-1.42-.8Z" style="fill: #4d4d4d"/>
            <path d="M26.6,22.24s.08-.06.09-.1.19-.39.14-.54a.6.6,0,0,0-.48-.22c-.41,0-.81.13-1.22.19a11.09,11.09,0,0,1-1.52.2,1.26,1.26,0,0,1-1.39-1.17c0-.54.22-.91.87-1.25V16.68a2,2,0,0,0-.62.28c-.06.06.05.31.08.47-.28,0-.53-.17-.61-.58-.13-.64.16-1,1.17-1.27,0-.63,0-1.26,0-1.89a.64.64,0,0,0-.37-.42c-.22-.1-.37.1-.45.31l-.11.19a.85.85,0,0,1,0-.22,1.25,1.25,0,0,1,1.29-1,1,1,0,0,1,1,1.08c0,1.76,0,3.51,0,5.27v.38l.79.15V12.59h.1v1l1.4-1,.94.81.51-.41c0,.13,0,.17-.05.18-.45.24-.43.64-.43,1.07,0,1.44,0,2.89,0,4.34,0,1-.37,1.37-1.36,1.27-.63-.06-1.24-.25-1.86-.34a4.05,4.05,0,0,0-1.1,0,.56.56,0,0,0-.56.66c0,.29.31.48.71.43.66-.08,1.33-.21,2-.31a2.65,2.65,0,0,1,1.45,0,1,1,0,0,1,.68,1.16A1.08,1.08,0,0,1,26.6,22.24Zm-1.21-2.82c.66.06,1-.12,1-.57s0-1.17,0-1.76c0-.29-.25-.34-.46-.35s-.52,0-.53.32C25.38,17.84,25.39,18.62,25.39,19.42Zm.43-6a.56.56,0,0,0-.43.68c0,.41,0,.83,0,1.24a.46.46,0,0,0,.52.45.42.42,0,0,0,.48-.44,8,8,0,0,1,0-.85A1,1,0,0,0,25.82,13.41Zm.56,2.34a.77.77,0,0,1-1,0v.93h1Z" style="fill: #4d4d4d"/>
            <path d="M15.51,21.36a1.14,1.14,0,0,1,1.41.64c.25.73-.19,1.31-1.21,1.59,0,.38,0,.76,0,1.14,0,.09.1.2.18.28a5.27,5.27,0,0,0,.49.4c-.05.06-.07.11-.11.13a1.09,1.09,0,0,0-.58,1.25,7.32,7.32,0,0,1,0,.95,3.27,3.27,0,0,0,1.11-1.36,2.6,2.6,0,0,1-2.25,2.78,3,3,0,0,1-3.41-2.66,3.05,3.05,0,0,1,2.37-3.16l-1.07,1.1.09.12,2-.91c0,1,0,1.86,0,2.76,0,.08-.13.19-.22.23-.48.25-1,.48-1.46.72a2.25,2.25,0,0,0,2.53.5.29.29,0,0,0,.12-.23c0-.2,0-.4,0-.59,0-.63.11-1.27-.65-1.56.15-.38.67-.4.65-.85s0-.69,0-1c-1-.25-1.94-.5-2.9-.73a.72.72,0,0,0-.41,0c-.39.12-.44.44-.15.88a.84.84,0,0,1-.68-1,1.41,1.41,0,0,1,1.74-1.2c.61.13,1.19.34,1.79.51a5,5,0,0,0,.67.14c.33,0,.59-.11.6-.36s-.22-.36-.45-.41ZM13.3,24.41c-.84.22-1,.37-1,1.14a2.63,2.63,0,0,0,.52,1.75c.17-.15.44-.28.44-.42C13.32,26.07,13.3,25.25,13.3,24.41Z" style="fill: #4d4d4d"/>
            <path d="M14.67,19.05l-.44.32c0-.09,0-.13,0-.14.41-.2.41-.55.4-.94s0-1.09,0-1.63a1.08,1.08,0,0,0-.4-.92,1,1,0,0,1-.34-1.17,1.32,1.32,0,0,1,1.18-.78,1.11,1.11,0,0,1-.12.15.52.52,0,0,0,0,.88l0,0c.78.34.89,1,.84,1.74a15.32,15.32,0,0,0,0,1.66.59.59,0,0,0,.2.39,8.2,8.2,0,0,0,.73.53,1.72,1.72,0,0,0,.06-.32c0-.87,0-1.74,0-2.61,0-.2-.18-.39-.3-.63l.86-.79,1,.92c-.36.14-.34.42-.34.71,0,.61,0,1.22,0,1.83a.44.44,0,0,0,.25.44c.25.14.48.3.75.47,0-.11,0-.18,0-.26,0-.79,0-1.57,0-2.36,0-.34,0-.68-.41-.88l1-.87.79.66.33-.18.05.06a1,1,0,0,1-.22.19.6.6,0,0,0-.32.64c0,.73,0,1.46,0,2.19a.46.46,0,0,1-.2.35c-.6.37-1.22.72-1.82,1.08a.32.32,0,0,1-.41,0,7.68,7.68,0,0,0-.78-.47.37.37,0,0,0-.34,0c-.3.17-.58.38-.89.58Z" style="fill: #4d4d4d"/>
            <path d="M21.92,28.31l-.89.82-1-.83c.4-.23.34-.58.34-.93,0-.54,0-1.09,0-1.63a1,1,0,0,0-.42-.92l-.31.13,0-.08L20.82,24l.76.87L22.8,24c.27.25.53.47.77.72a.26.26,0,0,0,.39,0c.33-.26.67-.49,1-.75l.95.88.4-.25a.58.58,0,0,0,0,.1c-.44.2-.39.59-.38,1,0,.56,0,1.13,0,1.7s0,.54.45.88l.3-.15.05.08-1.29.89-1-.91c.38-.23.29-.6.29-.93V25.65c0-.19-.53-.81-.69-.77s-.31.19-.31.3c0,.87,0,1.74,0,2.61,0,.17.21.33.33.52l-.88.82-1-.84c.39-.21.34-.56.34-.89,0-.58,0-1.16,0-1.73,0-.21-.45-.82-.63-.79s-.35.2-.36.32q0,1.29,0,2.58C21.61,28,21.8,28.12,21.92,28.31Z" style="fill: #4d4d4d"/>
            <path d="M23.3,6.49l1.2-.9,1,.88.36-.23,0,.07c-.41.26-.34.66-.34,1.06,0,.85,0,1.7,0,2.55a1.84,1.84,0,0,1-2.06,1.87l-.22,0a1.24,1.24,0,0,1,.22-.16,1.2,1.2,0,0,0,.83-1.11c0-.69.05-1.39.07-2.08a4.33,4.33,0,0,1,0-.72c.13-.65-.23-1-.72-1.26A.47.47,0,0,0,23.3,7c0,.71,0,1.42,0,2.13a.84.84,0,0,0,.43.83L24,9.77l.06.08-1.25.83-.93-.84-.29.14,0,0s.05-.09.09-.1a.87.87,0,0,0,.45-.94c0-1.3,0-2.59,0-3.89,0-.37,0-.72-.48-.94L23.3,3Z" style="fill: #4d4d4d"/>
            <path d="M30.08,19.89l-1.34-1-.34.21,0-.06c.41-.23.39-.62.38-1,0-.6,0-1.2,0-1.8a.42.42,0,0,1,.23-.42c.61-.33,1.21-.68,1.83-1,.41.3.83.59,1.24.9a.38.38,0,0,1,.12.27c0,.82,0,1.63,0,2.45a.43.43,0,0,1-.16.29C31.37,19.11,30.73,19.49,30.08,19.89Zm-.16-4.46c0,1,0,1.92,0,2.83a.3.3,0,0,0,.08.23c.29.23.6.44.92.67A.33.33,0,0,0,31,19c0-.89,0-1.78,0-2.68a.29.29,0,0,0-.09-.22C30.6,15.91,30.29,15.69,29.92,15.43Z" style="fill: #4d4d4d"/>
            <path d="M34.14,24a2.09,2.09,0,0,1-.67,1.81s0,.07.06.08c1,.42.68,1.27.69,2,0,.06-.1.15-.17.2l-1.62,1a.91.91,0,0,0-.24-.2,1.64,1.64,0,0,0-.6-.2c-.41,0-.53.25-.33.68a.78.78,0,0,1-.51-1.09,8.21,8.21,0,0,1,.71-1.18l0,0c-.9-.43-.62-1.24-.64-2A.25.25,0,0,1,31,25c.55-.31,1.09-.61,1.64-.89a.28.28,0,0,1,.25,0C33.42,24.51,33.61,24.5,34.14,24ZM33,28.44c0-.53,0-1,0-1.4,0-.22-.49-.54-.64-.43-.44.35-.87.73-1.3,1.09l0,.1A1.48,1.48,0,0,1,33,28.44Zm.7-3.14-.05-.11A1.33,1.33,0,0,1,32,24.64c0,.39,0,.68,0,1a.69.69,0,0,0,.52.79Z" style="fill: #4d4d4d"/>
            <path d="M37.81,12.17V17c0,.43,0,.86,0,1.28a.82.82,0,0,0,.42.83l.31-.16,0,.08-1.24.83-.93-.84-.29.14,0,0s0-.08.08-.1c.42-.19.46-.54.46-1,0-1.29,0-2.57,0-3.86,0-.37,0-.75-.53-.92Z" style="fill: #4d4d4d"/>
            <path d="M28.72,5.58l1,1.57L28,8.33c-.39.26-.4.58,0,.87l.82.65,1-.79.08.11L28,10.67c-.38-.27-.76-.52-1.11-.81s-.4-.24-.6,0a.27.27,0,0,1-.11.05l0-.06c.42-.22.4-.61.39-1,0-.6,0-1.2,0-1.79a.4.4,0,0,1,.25-.44C27.42,6.29,28,5.94,28.72,5.58Zm-.91.7-.07,0v2l1-.64Z" style="fill: #4d4d4d"/>
            <path d="M10.57,18.87l-.41.29c0-.07,0-.1,0-.1.43-.22.4-.61.39-1q0-.91,0-1.83a.44.44,0,0,1,.14-.32c.66-.37,1.33-.73,2-1.1l1,1.57-.9.61-.87.58c-.36.24-.36.58,0,.86l.83.65,1-.79.07.07s-.07.11-.11.14c-.54.43-1.07.86-1.62,1.27a.33.33,0,0,1-.32,0C11.4,19.48,11,19.18,10.57,18.87Zm2.12-2-.89-1.42-.06,0v2Z" style="fill: #4d4d4d"/>
            <path d="M29.35,28.29l1-.79.08.11-1.9,1.5c-.45-.33-.91-.65-1.36-1a.37.37,0,0,1-.1-.25c0-.83,0-1.66,0-2.48a.35.35,0,0,1,.13-.26c.67-.38,1.35-.74,2-1.11l1,1.57-1.75,1.18c-.4.26-.41.57,0,.87Zm-1-3.57-.07,0v2l1-.65Z" style="fill: #4d4d4d"/>
            <path d="M33.1,19.05l-.27.15,0-.05a2,2,0,0,0,.31-.26,1,1,0,0,0,.21-.43c0-.65,0-1.31,0-2a.93.93,0,0,0-.45-.87l-.31.16-.06-.08,1.23-.86.74.78.73-.8a.68.68,0,0,0,1,0,1.53,1.53,0,0,1-.58,1.22c-.3.19-.55.12-1.11-.28v.37c0,.7,0,1.4,0,2.1a.77.77,0,0,0,.23.66c.24.22.42.19.66,0l0,.12-1.3.86Z" style="fill: #4d4d4d"/>
            <path d="M40.76,19.11l.42-.22,0,.08-1.41,1c-.47-.72-.94-1.41-1.39-2.11-.19-.28-.5-.56-.5-.85s.31-.57.49-.86l.84-1.3c.76.45.88.45,1.4,0a1.2,1.2,0,0,1-.5,1.13c-.48.35-.91.14-1.39-.16,0,.11-.07.22,0,.28Z" style="fill: #4d4d4d"/>
            <path d="M18.25,24l.71.85.35-.19,0,.09c-.35.18-.38.49-.37.85,0,.64,0,1.28,0,1.92,0,.48,0,.48.41.81l.33-.15c0,.05,0,.08,0,.09l-1.21.83-.92-.84-.27.17,0,0c0-.05.07-.12.13-.15a.74.74,0,0,0,.39-.8,17.22,17.22,0,0,1,0-1.76,1,1,0,0,0-.39-.89l-.3.14-.06-.08Z" style="fill: #4d4d4d"/>
            <path d="M18.26,23.55l-.78-.88.91-.77.77.89Z" style="fill: #4d4d4d"/>
            <path d="M17.65,6c0,.83,0,1.63,0,2.44,0,.15-.28.29-.44.45a2.65,2.65,0,0,1-.53-1.72v0C16.7,6.29,16.79,6.18,17.65,6Z" style="fill: #fff"/>
            <path d="M25.39,19.42c0-.8,0-1.58,0-2.36,0-.29.3-.33.53-.32s.46.06.46.35c0,.59,0,1.17,0,1.76S26.05,19.48,25.39,19.42Z" style="fill: #fff"/>
            <path d="M25.82,13.41a1,1,0,0,1,.58,1.08,8,8,0,0,0,0,.85.42.42,0,0,1-.48.44.46.46,0,0,1-.52-.45c0-.41,0-.83,0-1.24A.56.56,0,0,1,25.82,13.41Z" style="fill: #fff"/>
            <path d="M26.38,15.75v.91h-1v-.93A.77.77,0,0,0,26.38,15.75Z" style="fill: #4d4d4d"/>
            <path d="M13.3,24.41c0,.84,0,1.66,0,2.47,0,.14-.27.27-.44.42a2.63,2.63,0,0,1-.52-1.75C12.33,24.78,12.46,24.63,13.3,24.41Z" style="fill: #fff"/>
            <path d="M29.92,15.43c.37.26.68.48,1,.71a.29.29,0,0,1,.09.22c0,.9,0,1.79,0,2.68a.33.33,0,0,1-.05.12c-.32-.23-.63-.44-.92-.67a.3.3,0,0,1-.08-.23C29.92,17.35,29.92,16.44,29.92,15.43Z" style="fill: #fff"/>
            <path d="M33,28.44a1.48,1.48,0,0,0-1.89-.64l0-.1c.43-.36.86-.74,1.3-1.09.15-.11.63.21.64.43C33.05,27.47,33,27.91,33,28.44Z" style="fill: #fff"/>
            <path d="M33.74,25.3l-1.19,1.1a.69.69,0,0,1-.52-.79c0-.29,0-.58,0-1a1.33,1.33,0,0,0,1.66.55Z" style="fill: #fff"/>
            <path d="M27.81,6.28l.89,1.41-1,.64v-2Z" style="fill: #fff"/>
            <path d="M12.69,16.91l-.95.64v-2l.06,0Z" style="fill: #fff"/>
            <path d="M28.37,24.72l.9,1.41-1,.65v-2Z" style="fill: #fff"/>
          </g>
        </g>
        <text transform="translate(5.19 58.93)" style="font-size: 9.338549613952637px;fill: #ff738e;font-family: FrankfurterPlain, Frankfurter;letter-spacing: 0.09997202869759632em">$%&amp; !!!</text>
        <g>
          <polyline points="4.02 35.78 6.59 38.5 10.86 33.51 13.19 40.09 16.11 39.12 21.81 44.74 25.54 40.83 30.11 46.48 34.1 45.36 39.21 48.24" style="fill: none;stroke: #ff738e;stroke-miterlimit: 10;stroke-width: 0.498878892129717px"/>
          <polyline points="41.36 48.23 4.02 48.73 4.02 31.45" style="fill: none;stroke: #4d4d4d;stroke-miterlimit: 10;stroke-width: 0.498878892129717px"/>
        </g>
      </g>
    </g>
  </g>
</svg>
