<svg xmlns="http://www.w3.org/2000/svg" viewBox="0 0 29.23 40.51">
  <title>Asset 1</title>
  <g id="Layer_2" data-name="Layer 2">
    <g id="TEKST">
      <g>
        <rect x="-5.18" y="6.1" width="39.59" height="28.31" transform="translate(34.87 5.64) rotate(90)" style="fill: #fff;stroke: #4d4d4d;stroke-miterlimit: 10;stroke-width: 0.920976579189301px"/>
        <g id="jaxkCy.tif">
          <g>
            <path d="M17.13,15a.7.7,0,0,0,.7-.56.64.64,0,0,0-.44-.75,1.73,1.73,0,0,0-.93,0c-.43.07-.86.15-1.29.2a.36.36,0,1,1-.09-.7,2.81,2.81,0,0,1,.71,0c.4.06.79.18,1.19.22.64.06.88-.18.88-.82,0-.93,0-1.86,0-2.8,0-.27,0-.53.28-.68a.58.58,0,0,0,0-.12l-.33.26-.6-.52-.91.67V8.75h-.06v4.39l-.51-.1v-.25c0-1.13,0-2.26,0-3.39a.64.64,0,0,0-.66-.69.81.81,0,0,0-.83.66s0,.06,0,.14l.07-.12c.06-.14.15-.26.3-.2a.41.41,0,0,1,.23.27c0,.41,0,.81,0,1.22-.64.2-.83.41-.75.82.06.26.21.39.39.37,0-.1-.09-.26,0-.3a1.66,1.66,0,0,1,.4-.19V13.1c-.42.23-.58.46-.56.81a.8.8,0,0,0,.9.75,6.56,6.56,0,0,0,1-.12c.26,0,.52-.11.79-.13.1,0,.27.07.3.15s-.05.23-.09.35ZM10,14.4l.17.06c.15,0,.3.07.29.27s-.18.25-.39.22a2.05,2.05,0,0,1-.43-.09c-.39-.11-.76-.24-1.15-.33a.93.93,0,0,0-1.13.78.54.54,0,0,0,.44.64c-.18-.29-.15-.49.1-.57a.49.49,0,0,1,.27,0l1.86.48v.67c0,.29-.32.3-.41.55.48.18.43.6.41,1,0,.12,0,.25,0,.38a.28.28,0,0,1-.08.15,1.47,1.47,0,0,1-1.63-.32l.94-.47c.06,0,.14-.09.14-.15,0-.58,0-1.16,0-1.78l-1.32.59L8,16.39l.69-.72a2,2,0,0,0-1.53,2,1.92,1.92,0,0,0,2.19,1.72,1.68,1.68,0,0,0,1.46-1.8,2.21,2.21,0,0,1-.72.88,4,4,0,0,0,0-.61.72.72,0,0,1,.37-.81s0,0,.07-.08-.22-.17-.31-.26a.41.41,0,0,1-.12-.18c0-.25,0-.49,0-.73.66-.18.94-.55.78-1A.75.75,0,0,0,10,14.4Zm-.54-1.49.71.56c.2-.13.38-.27.57-.38a.28.28,0,0,1,.22,0,3.25,3.25,0,0,1,.51.3.21.21,0,0,0,.26,0l1.18-.7a.38.38,0,0,0,.13-.22c0-.47,0-1,0-1.42a.38.38,0,0,1,.21-.41,1.49,1.49,0,0,0,.14-.12l0,0-.21.12-.51-.43-.61.56c.28.13.26.35.26.57v1.52a1.28,1.28,0,0,1,0,.17c-.17-.11-.32-.22-.48-.31a.26.26,0,0,1-.16-.28c0-.39,0-.79,0-1.18,0-.19,0-.36.22-.46l-.64-.59-.55.51a1.39,1.39,0,0,1,.2.41c0,.56,0,1.12,0,1.68a1.23,1.23,0,0,1,0,.21l-.47-.34a.38.38,0,0,1-.13-.26c0-.36,0-.71,0-1.07a1,1,0,0,0-.54-1.12h0a.34.34,0,0,1,0-.57l.07-.09A.85.85,0,0,0,9,10a.63.63,0,0,0,.22.75.7.7,0,0,1,.26.59,9.19,9.19,0,0,0,0,1.05c0,.25,0,.48-.26.61v.09Zm4.67,6c-.08-.13-.2-.23-.21-.34,0-.56,0-1.11,0-1.67,0-.07.14-.18.23-.2s.4.37.4.5v1.12c0,.22,0,.44-.22.58l.64.53.57-.52c-.08-.12-.21-.23-.22-.34q0-.84,0-1.68c0-.07.12-.17.2-.19s.45.37.45.5v1c0,.22.06.45-.19.6l.64.58.83-.57,0,0-.2.1c-.29-.22-.29-.22-.29-.57s0-.73,0-1.1,0-.49.25-.62v-.06l-.25.16-.62-.57-.67.48c-.1.08-.16.07-.25,0l-.49-.46-.79.56-.49-.56-.77.54,0,.05.2-.08a.61.61,0,0,1,.27.59c0,.35,0,.7,0,1.05s0,.46-.23.6l.63.53ZM15,4.82V2.55l-1.07.71c.3.14.31.37.31.61,0,.83,0,1.67,0,2.5A.56.56,0,0,1,14,7a.22.22,0,0,0-.06.07l0,0L14.11,7l.6.54.8-.53,0-.06-.2.11A.56.56,0,0,1,15,6.5a12.52,12.52,0,0,0,0-1.37.3.3,0,0,1,.23-.34c.32.17.55.39.46.8a2.46,2.46,0,0,0,0,.47c0,.44,0,.89,0,1.34a.76.76,0,0,1-.53.71.79.79,0,0,0-.14.11h.14A1.18,1.18,0,0,0,16.44,7c0-.55,0-1.09,0-1.64,0-.26,0-.52.22-.69v0l-.23.15-.66-.57Zm4.36,8.64c.42-.26.84-.51,1.24-.77a.22.22,0,0,0,.1-.18c0-.53,0-1,0-1.58a.29.29,0,0,0-.07-.18l-.8-.57-1.18.67a.25.25,0,0,0-.15.27c0,.38,0,.77,0,1.15s0,.51-.25.66l0,0,.22-.14ZM22,16.08c-.34.34-.47.35-.84.09a.18.18,0,0,0-.16,0l-1,.57a.17.17,0,0,0-.08.11c0,.46-.16,1,.42,1.26,0,0,0,0,0,0a5.59,5.59,0,0,0-.45.76.49.49,0,0,0,.33.7c-.13-.27-.06-.44.21-.44a1.22,1.22,0,0,1,.39.14.79.79,0,0,1,.15.12l1-.62c.05,0,.11-.09.11-.13,0-.48.18-1-.44-1.3a.1.1,0,0,1,0-.05A1.36,1.36,0,0,0,22,16.08Zm2.36-7.6-1.11.74c.36.11.35.35.35.6,0,.82,0,1.65,0,2.48,0,.27,0,.49-.3.62,0,0,0,0-.05.06l0,0,.18-.09.6.54.8-.53,0-.06-.2.1a.51.51,0,0,1-.27-.53c0-.27,0-.55,0-.82ZM18.5,4.24l-1.25.66a.26.26,0,0,0-.16.28c0,.39,0,.77,0,1.16s0,.5-.25.65l0,0s.06,0,.07,0,.25-.11.39,0,.47.34.71.52l1.23-1-.06-.07L18.54,7,18,6.57A.31.31,0,0,1,18,6l1.12-.75ZM6.81,12.8c.27.2.53.39.8.57a.22.22,0,0,0,.21,0c.35-.26.7-.54,1-.82a.31.31,0,0,0,.07-.09l0,0-.66.51-.53-.42a.31.31,0,0,1,0-.56l.56-.37.58-.39-.66-1c-.45.25-.89.47-1.31.71a.29.29,0,0,0-.09.21c0,.39,0,.79,0,1.18s0,.51-.26.65a.15.15,0,0,1,0,.06Zm12.1,6.07-.54-.43c-.24-.19-.23-.38,0-.56l1.13-.75-.66-1-1.32.72a.23.23,0,0,0-.08.16c0,.54,0,1.07,0,1.6a.24.24,0,0,0,.06.17l.88.64,1.22-1-.05-.06Zm2.41-6,.65.55.84-.56,0-.07a.28.28,0,0,1-.43,0,.51.51,0,0,1-.14-.43V10.82c.36.26.53.3.72.18a1,1,0,0,0,.37-.79.45.45,0,0,1-.64,0l-.47.51-.47-.5-.79.55,0,.06.2-.11a.58.58,0,0,1,.29.56c0,.42,0,.84,0,1.26a.53.53,0,0,1-.14.28c0,.06-.13.11-.19.17l0,0Zm4.94,0c-.44-.64-.88-1.29-1.31-1.95,0,0,0-.1,0-.18.31.2.59.33.89.11a.78.78,0,0,0,.33-.73c-.34.27-.41.26-.9,0l-.54.84c-.12.19-.32.37-.32.56s.2.37.32.55l.9,1.35.91-.61,0,0ZM11.75,16.12l-.77.54,0,.06.19-.09a.61.61,0,0,1,.25.57,10.65,10.65,0,0,0,0,1.13.46.46,0,0,1-.25.52s-.05.07-.08.1l0,0,.18-.1.6.53.77-.53s0,0,0-.06l-.21.1c-.27-.21-.27-.21-.27-.52s0-.83,0-1.24c0-.23,0-.43.24-.55l0-.05-.23.12Zm0-.31.58-.49-.5-.57-.58.49Z" style="fill: #4d4d4d"/>
            <path d="M13.07,2.47l.1,0a.64.64,0,0,1,.56.63.77.77,0,0,1-.54.75,2.3,2.3,0,0,1-.28.06c0,.25,0,.49,0,.74a.28.28,0,0,0,.1.17l.33.27s0,.06,0,.07a.77.77,0,0,0-.4.89,4.73,4.73,0,0,1,0,.54,2.08,2.08,0,0,0,.7-.84h.06c0,.12,0,.23,0,.34a1.68,1.68,0,0,1-1.17,1.34,1.84,1.84,0,0,1-1.88-.42,1.79,1.79,0,0,1-.54-1.88,2,2,0,0,1,1.45-1.4h0l-.7.72.06.07L12.19,4c0,.61,0,1.2,0,1.77,0,.06-.08.13-.13.16l-1,.46a1.48,1.48,0,0,0,1.63.32.27.27,0,0,0,.08-.18,8.42,8.42,0,0,0,0-.87.41.41,0,0,0-.11-.24c-.09-.1-.2-.18-.29-.27.09-.21.42-.23.41-.52s0-.45,0-.67L11,3.49a.5.5,0,0,0-.21,0c-.31,0-.39.28-.19.59a.48.48,0,0,1-.42-.45.89.89,0,0,1,1.11-1c.4.08.78.22,1.17.33a2.39,2.39,0,0,0,.45.09c.17,0,.33,0,.35-.23s-.13-.23-.27-.27a.72.72,0,0,1-.15-.11Zm-1.7,2c-.56.14-.62.21-.64.73v0a1.75,1.75,0,0,0,.34,1.11c.11-.1.28-.19.29-.29C11.38,5.54,11.37,5,11.37,4.49Z" style="fill: #4d4d4d"/>
            <path d="M2.67,13a1,1,0,0,1,1-.67V11.2c-.13,0-.29,0-.35.1s0,.23-.06.36c-.18,0-.36-.21-.38-.51s.16-.59.8-.72a6,6,0,0,0,0-.85c0-.11-.2-.23-.33-.27s-.18.13-.26.2A.6.6,0,0,0,3,9.65a.8.8,0,0,1,.28-.85.68.68,0,0,1,.84,0,1.89,1.89,0,0,1,.35.44l1.41,2.44.13.21V9.71L5.3,9.42l-.13.24-.08-.07.76-.88c.5.33.65.32,1-.11.27.39,0,.85-.72,1.09v3.75c-.16.08-.2,0-.25-.12L4.14,10.27a5.26,5.26,0,0,0-.35-.52c0,.05,0,.11,0,.16v2.27a.2.2,0,0,0,.17.23c.23.09.43.22.7.36l.12-.21.08.06-.75.85a3.79,3.79,0,0,0-.43-.24.38.38,0,0,0-.49.17.31.31,0,0,0,.16.44,1.34,1.34,0,0,0,.24.09c-.38.12-.7-.08-.91-.51Z" style="fill: #4d4d4d"/>
            <path d="M17.13,15l.06-.06c0-.12.12-.26.09-.35s-.2-.15-.3-.15c-.27,0-.53.09-.79.13a6.56,6.56,0,0,1-1,.12.8.8,0,0,1-.9-.75c0-.35.14-.58.56-.81V11.38a1.66,1.66,0,0,0-.4.19s0,.2,0,.3c-.18,0-.33-.11-.39-.37-.08-.41.11-.62.75-.82,0-.41,0-.81,0-1.22a.41.41,0,0,0-.23-.27c-.15-.06-.24.06-.3.2l-.07.12c0-.08,0-.11,0-.14a.81.81,0,0,1,.83-.66.64.64,0,0,1,.66.69c0,1.13,0,2.26,0,3.39V13l.51.1V8.75h.06v.61l.91-.67.6.52L18.17,9a.58.58,0,0,1,0,.12c-.29.15-.28.41-.28.68,0,.94,0,1.87,0,2.8,0,.64-.24.88-.88.82-.4,0-.79-.16-1.19-.22a2.81,2.81,0,0,0-.71,0,.36.36,0,1,0,.09.7c.43,0,.86-.13,1.29-.2a1.73,1.73,0,0,1,.93,0,.64.64,0,0,1,.44.75A.7.7,0,0,1,17.13,15Zm-.77-1.82c.42,0,.62-.07.63-.37s0-.75,0-1.13c0-.19-.16-.22-.3-.23s-.33,0-.34.21C16.34,12.13,16.36,12.64,16.36,13.15Zm.27-3.87a.37.37,0,0,0-.28.44c0,.26,0,.53,0,.8a.29.29,0,0,0,.33.29.28.28,0,0,0,.31-.29A3.25,3.25,0,0,1,17,10,.66.66,0,0,0,16.63,9.28ZM17,10.79a.5.5,0,0,1-.63,0v.6H17Z" style="fill: #4d4d4d"/>
            <path d="M10,14.4a.75.75,0,0,1,.91.41c.16.48-.12.85-.78,1,0,.24,0,.48,0,.73a.41.41,0,0,0,.12.18c.09.09.2.17.31.26s0,.07-.07.08a.72.72,0,0,0-.37.81,4,4,0,0,1,0,.61,2.21,2.21,0,0,0,.72-.88,1.68,1.68,0,0,1-1.46,1.8,1.92,1.92,0,0,1-2.19-1.72,2,2,0,0,1,1.53-2L8,16.39l.05.07,1.32-.59c0,.62,0,1.2,0,1.78,0,.06-.08.12-.14.15l-.94.47a1.47,1.47,0,0,0,1.63.32.28.28,0,0,0,.08-.15c0-.13,0-.26,0-.38,0-.4.07-.82-.41-1,.09-.25.42-.26.41-.55v-.67l-1.86-.48a.49.49,0,0,0-.27,0c-.25.08-.28.28-.1.57a.54.54,0,0,1-.44-.64.93.93,0,0,1,1.13-.78c.39.09.76.22,1.15.33a2.05,2.05,0,0,0,.43.09c.21,0,.38-.07.39-.22s-.14-.24-.29-.27Zm-1.42,2c-.55.14-.63.23-.63.73a1.69,1.69,0,0,0,.33,1.12c.11-.09.28-.17.29-.26C8.58,17.43,8.57,16.91,8.57,16.37Z" style="fill: #4d4d4d"/>
            <path d="M9.45,12.91l-.28.21V13c.26-.13.27-.36.26-.61a9.19,9.19,0,0,1,0-1.05.7.7,0,0,0-.26-.59A.63.63,0,0,1,9,10a.85.85,0,0,1,.76-.5l-.07.09a.34.34,0,0,0,0,.57h0a1,1,0,0,1,.54,1.12c0,.36,0,.71,0,1.07a.38.38,0,0,0,.13.26l.47.34a1.23,1.23,0,0,0,0-.21c0-.56,0-1.12,0-1.68a1.39,1.39,0,0,0-.2-.41l.55-.51.64.59c-.23.1-.23.27-.22.46,0,.39,0,.79,0,1.18a.26.26,0,0,0,.16.28c.16.09.31.2.48.31a1.28,1.28,0,0,0,0-.17V11.31c0-.22,0-.44-.26-.57l.61-.56.51.43.21-.12,0,0a1.49,1.49,0,0,1-.14.12.38.38,0,0,0-.21.41c0,.47,0,.95,0,1.42a.38.38,0,0,1-.13.22l-1.18.7a.21.21,0,0,1-.26,0,3.25,3.25,0,0,0-.51-.3.28.28,0,0,0-.22,0c-.19.11-.37.25-.57.38Z" style="fill: #4d4d4d"/>
            <path d="M14.12,18.88l-.58.52-.63-.53c.26-.14.23-.38.23-.6s0-.7,0-1.05a.61.61,0,0,0-.27-.59l-.2.08,0-.05.77-.54.49.56.79-.56.49.46c.09.09.15.1.25,0l.67-.48.62.57.25-.16v.06c-.28.13-.25.38-.25.62s0,.73,0,1.1,0,.35.29.57l.2-.1,0,0-.83.57-.64-.58c.25-.15.19-.38.19-.6v-1c0-.13-.34-.53-.45-.5s-.2.12-.2.19q0,.84,0,1.68c0,.11.14.22.22.34L15,19.4l-.64-.53c.26-.14.22-.36.22-.58V17.17c0-.13-.29-.52-.4-.5s-.23.13-.23.2c0,.56,0,1.11,0,1.67C13.92,18.65,14,18.75,14.12,18.88Z" style="fill: #4d4d4d"/>
            <path d="M15,4.82l.77-.58.66.57.23-.15v0c-.26.17-.22.43-.22.69,0,.55,0,1.09,0,1.64a1.18,1.18,0,0,1-1.33,1.2H15a.79.79,0,0,1,.14-.11.76.76,0,0,0,.53-.71c0-.45,0-.9,0-1.34a2.46,2.46,0,0,1,0-.47c.09-.41-.14-.63-.46-.8a.3.3,0,0,0-.23.34A12.52,12.52,0,0,1,15,6.5a.56.56,0,0,0,.28.54l.2-.11,0,.06-.8.53L14.11,7l-.19.09,0,0A.22.22,0,0,1,14,7a.56.56,0,0,0,.29-.61c0-.83,0-1.67,0-2.5,0-.24,0-.47-.31-.61L15,2.55Z" style="fill: #4d4d4d"/>
            <path d="M19.37,13.46l-.86-.63-.22.14,0,0c.27-.15.25-.4.25-.66s0-.77,0-1.15a.25.25,0,0,1,.15-.27l1.18-.67.8.57a.29.29,0,0,1,.07.18c0,.53,0,1.05,0,1.58a.22.22,0,0,1-.1.18C20.21,13,19.79,13.2,19.37,13.46Zm-.1-2.88c0,.65,0,1.24,0,1.82a.2.2,0,0,0,0,.15l.59.44,0-.08c0-.58,0-1.15,0-1.73A.26.26,0,0,0,19.9,11C19.71,10.89,19.51,10.75,19.27,10.58Z" style="fill: #4d4d4d"/>
            <path d="M22,16.08a1.36,1.36,0,0,1-.43,1.17.1.1,0,0,0,0,.05c.62.27.43.82.44,1.3,0,0-.06.1-.11.13l-1,.62a.79.79,0,0,0-.15-.12,1.22,1.22,0,0,0-.39-.14c-.27,0-.34.17-.21.44a.49.49,0,0,1-.33-.7,5.59,5.59,0,0,1,.45-.76s0,0,0,0c-.58-.27-.41-.8-.42-1.26a.17.17,0,0,1,.08-.11l1-.57a.18.18,0,0,1,.16,0C21.52,16.43,21.65,16.42,22,16.08ZM21.28,19c0-.34,0-.62,0-.9s-.31-.35-.41-.28c-.29.23-.56.47-.84.71l0,.06A1,1,0,0,1,21.28,19Zm.45-2,0-.07a.86.86,0,0,1-1.07-.36c0,.25,0,.44,0,.63s.08.4.34.51Z" style="fill: #4d4d4d"/>
            <path d="M24.35,8.48v3.14c0,.27,0,.55,0,.82a.51.51,0,0,0,.27.53l.2-.1,0,.06-.8.53-.6-.54-.18.09,0,0s0-.05.05-.06c.28-.13.31-.35.3-.62,0-.83,0-1.66,0-2.48,0-.25,0-.49-.35-.6Z" style="fill: #4d4d4d"/>
            <path d="M18.5,4.24l.65,1L18,6a.31.31,0,0,0,0,.57l.53.42.66-.51.06.07L18,7.52c-.24-.18-.49-.34-.71-.52s-.26-.16-.39,0-.05,0-.07,0l0,0c.27-.15.26-.4.25-.65s0-.77,0-1.16a.26.26,0,0,1,.16-.28Zm-.59.45h0V6l.62-.41Z" style="fill: #4d4d4d"/>
            <path d="M6.81,12.8,6.54,13a.15.15,0,0,0,0-.06c.28-.14.26-.39.26-.65s0-.79,0-1.18a.29.29,0,0,1,.09-.21c.42-.24.86-.46,1.31-.71l.66,1-.58.39L7.71,12a.31.31,0,0,0,0,.56l.53.42.66-.51,0,0a.31.31,0,0,1-.07.09c-.34.28-.69.56-1,.82a.22.22,0,0,1-.21,0C7.34,13.19,7.08,13,6.81,12.8Zm1.37-1.26-.58-.92,0,0V12Z" style="fill: #4d4d4d"/>
            <path d="M18.91,18.87l.66-.51.05.06-1.22,1-.88-.64a.24.24,0,0,1-.06-.17c0-.53,0-1.06,0-1.6a.23.23,0,0,1,.08-.16l1.32-.72.66,1-1.13.75c-.25.18-.26.37,0,.56Zm-.64-2.31,0,0v1.31l.62-.42Z" style="fill: #4d4d4d"/>
            <path d="M21.32,12.91l-.17.1,0,0c.06-.06.14-.11.19-.17a.53.53,0,0,0,.14-.28c0-.42,0-.84,0-1.26a.58.58,0,0,0-.29-.56l-.2.11,0-.06.79-.55.47.5.47-.51a.45.45,0,0,0,.64,0,1,1,0,0,1-.37.79c-.19.12-.36.08-.72-.18v1.59a.51.51,0,0,0,.14.43.28.28,0,0,0,.43,0l0,.07-.84.56Z" style="fill: #4d4d4d"/>
            <path d="M26.26,13l.26-.14,0,0-.91.61-.9-1.35c-.12-.18-.32-.37-.32-.55s.2-.37.32-.56l.54-.84c.49.29.56.3.9,0a.78.78,0,0,1-.33.73c-.3.22-.58.09-.89-.11,0,.08,0,.15,0,.18C25.38,11.66,25.82,12.31,26.26,13Z" style="fill: #4d4d4d"/>
            <path d="M11.75,16.12l.46.55.23-.12,0,.05c-.23.12-.25.32-.24.55,0,.41,0,.83,0,1.24s0,.31.27.52l.21-.1s0,.06,0,.06l-.77.53-.6-.53-.18.1,0,0s0-.08.08-.1a.46.46,0,0,0,.25-.52,10.65,10.65,0,0,1,0-1.13.61.61,0,0,0-.25-.57l-.19.09,0-.06Z" style="fill: #4d4d4d"/>
            <path d="M11.76,15.81l-.5-.57.58-.49.5.57Z" style="fill: #4d4d4d"/>
            <path d="M11.37,4.49c0,.53,0,1,0,1.57,0,.1-.18.19-.29.29a1.75,1.75,0,0,1-.34-1.11v0C10.75,4.7,10.81,4.63,11.37,4.49Z" style="fill: #fff"/>
            <path d="M16.36,13.15c0-.51,0-1,0-1.52,0-.18.19-.21.34-.21s.3,0,.3.23c0,.38,0,.76,0,1.13S16.78,13.19,16.36,13.15Z" style="fill: #fff"/>
            <path d="M16.63,9.28A.66.66,0,0,1,17,10a3.25,3.25,0,0,0,0,.54.28.28,0,0,1-.31.29.29.29,0,0,1-.33-.29c0-.27,0-.54,0-.8A.37.37,0,0,1,16.63,9.28Z" style="fill: #fff"/>
            <path d="M17,10.79v.58h-.63v-.6A.5.5,0,0,0,17,10.79Z" style="fill: #4d4d4d"/>
            <path d="M8.57,16.37c0,.54,0,1.06,0,1.59,0,.09-.18.17-.29.26a1.69,1.69,0,0,1-.33-1.12C7.94,16.6,8,16.51,8.57,16.37Z" style="fill: #fff"/>
            <path d="M19.27,10.58c.24.17.44.31.63.46a.26.26,0,0,1,.06.14c0,.58,0,1.15,0,1.73l0,.08-.59-.44a.2.2,0,0,1,0-.15C19.27,11.82,19.27,11.23,19.27,10.58Z" style="fill: #fff"/>
            <path d="M21.28,19a1,1,0,0,0-1.22-.41l0-.06c.28-.24.55-.48.84-.71.1-.07.41.14.41.28S21.28,18.62,21.28,19Z" style="fill: #fff"/>
            <path d="M21.73,16.94l-.76.71c-.26-.11-.37-.26-.34-.51s0-.38,0-.63a.86.86,0,0,0,1.07.36Z" style="fill: #fff"/>
            <path d="M17.91,4.69l.58.91L17.87,6V4.7Z" style="fill: #fff"/>
            <path d="M8.18,11.54,7.56,12V10.64l0,0Z" style="fill: #fff"/>
            <path d="M18.27,16.56l.58.91-.62.42V16.58Z" style="fill: #fff"/>
          </g>
        </g>
        <g>
          <line x1="4.14" y1="23.91" x2="6.67" y2="23.91" style="fill: #fff;stroke: #4d4d4d;stroke-miterlimit: 10;stroke-width: 0.920976579189301px"/>
          <line x1="4.14" y1="25.75" x2="10.36" y2="25.75" style="fill: #fff;stroke: #4d4d4d;stroke-miterlimit: 10;stroke-width: 0.36839063167572px"/>
          <line x1="4.14" y1="27.59" x2="10.36" y2="27.59" style="fill: #fff;stroke: #4d4d4d;stroke-miterlimit: 10;stroke-width: 0.36839063167572px"/>
          <line x1="4.14" y1="29.44" x2="10.36" y2="29.44" style="fill: #fff;stroke: #4d4d4d;stroke-miterlimit: 10;stroke-width: 0.36839063167572px"/>
          <line x1="4.14" y1="31.28" x2="10.36" y2="31.28" style="fill: #fff;stroke: #4d4d4d;stroke-miterlimit: 10;stroke-width: 0.36839063167572px"/>
          <line x1="4.14" y1="33.12" x2="10.36" y2="33.12" style="fill: #fff;stroke: #4d4d4d;stroke-miterlimit: 10;stroke-width: 0.36839063167572px"/>
          <line x1="4.14" y1="36.81" x2="10.36" y2="36.81" style="fill: #fff;stroke: #4d4d4d;stroke-miterlimit: 10;stroke-width: 0.36839063167572px"/>
          <line x1="4.14" y1="34.96" x2="10.36" y2="34.96" style="fill: #fff;stroke: #4d4d4d;stroke-miterlimit: 10;stroke-width: 0.36839063167572px"/>
          <line x1="11.5" y1="25.75" x2="17.72" y2="25.75" style="fill: #fff;stroke: #4d4d4d;stroke-miterlimit: 10;stroke-width: 0.36839063167572px"/>
          <line x1="11.5" y1="27.59" x2="17.72" y2="27.59" style="fill: #fff;stroke: #4d4d4d;stroke-miterlimit: 10;stroke-width: 0.36839063167572px"/>
          <line x1="11.5" y1="29.44" x2="17.72" y2="29.44" style="fill: #fff;stroke: #4d4d4d;stroke-miterlimit: 10;stroke-width: 0.36839063167572px"/>
          <line x1="11.5" y1="31.28" x2="17.72" y2="31.28" style="fill: #fff;stroke: #4d4d4d;stroke-miterlimit: 10;stroke-width: 0.36839063167572px"/>
          <line x1="11.5" y1="33.12" x2="17.72" y2="33.12" style="fill: #fff;stroke: #4d4d4d;stroke-miterlimit: 10;stroke-width: 0.36839063167572px"/>
          <line x1="11.5" y1="36.81" x2="17.72" y2="36.81" style="fill: #fff;stroke: #4d4d4d;stroke-miterlimit: 10;stroke-width: 0.36839063167572px"/>
          <line x1="11.5" y1="34.96" x2="17.72" y2="34.96" style="fill: #fff;stroke: #4d4d4d;stroke-miterlimit: 10;stroke-width: 0.36839063167572px"/>
          <line x1="18.87" y1="25.75" x2="25.09" y2="25.75" style="fill: #fff;stroke: #4d4d4d;stroke-miterlimit: 10;stroke-width: 0.36839063167572px"/>
          <line x1="18.87" y1="27.59" x2="25.09" y2="27.59" style="fill: #fff;stroke: #4d4d4d;stroke-miterlimit: 10;stroke-width: 0.36839063167572px"/>
          <rect x="18.87" y="29.44" width="6.22" height="5.53" style="fill: #fff;stroke: #4d4d4d;stroke-miterlimit: 10;stroke-width: 0.36839063167572px"/>
          <line x1="18.87" y1="36.81" x2="25.09" y2="36.81" style="fill: #fff;stroke: #4d4d4d;stroke-miterlimit: 10;stroke-width: 0.36839063167572px"/>
        </g>
      </g>
    </g>
  </g>
</svg>
