<svg xmlns="http://www.w3.org/2000/svg" viewBox="0 0 50.9 63.84"><g id="Layer_2" data-name="Layer 2"><g id="TEKST"><path fill="#ffc38b" stroke="#ffc38b" stroke-linecap="round" stroke-linejoin="round" stroke-width="5" d="M44.69 33.33L48.4 8.1l-3.71-.55V5.01H27.42L10.32 2.5l-.36 2.51H6.21v25.51L2.5 55.75l3.71.55v2.53h17.27l17.1 2.51.37-2.51h3.74v-25.5z"/><path fill="#ccc" stroke="#4d4d4d" stroke-miterlimit="10" stroke-width="1.5" d="M48.39307794 7.71573401l-7.8250163 53.24811283L2.4870534 55.36769526l7.8250163-53.24811283z"/><path fill="#fff" stroke="#4d4d4d" stroke-miterlimit="10" stroke-width="1.5" d="M44.69 5.01v53.82H6.2V5.01z"/><path fill="#fff" stroke="#4d4d4d" stroke-miterlimit="10" stroke-width=".5" d="M21.22 54.43h8.46M31.24 54.43h8.46M21.22 51.71h8.46M31.24 51.71h8.46M21.22 48.99h8.46M31.24 48.99h8.46"/><path fill="#a2ffcb" d="M11.2 46.27h8.46v8.16H11.2z"/><path fill="#fff" stroke="#4d4d4d" stroke-miterlimit="10" stroke-width=".5" d="M21.22 46.27h8.46M31.24 46.27h8.46M11.2 43.55h28.5M11.2 40.83h28.5M11.2 38.11h28.5M11.2 35.39h28.5M11.2 32.67h28.5M11.2 29.95h8.46M11.2 27.23h8.46M11.2 24.51h8.46M11.2 21.79h8.46"/><path fill="#a2ffcb" d="M21.22 21.79h18.47v8.16H21.22z"/><path fill="#fff" stroke="#4d4d4d" stroke-miterlimit="10" stroke-width=".5" d="M11.2 19.07h28.5"/><text transform="translate(10.2 15.83)" font-size="9.95621014" fill="#4d4d4d" font-family="FrankfurterPlain,Frankfurter" letter-spacing=".09999844em">NEWS</text></g></g></svg>