<svg xmlns="http://www.w3.org/2000/svg" viewBox="0 0 50.9 63.84"><g id="Layer_2" data-name="Layer 2"><g id="TEKST"><path fill="#ffc38b" stroke="#ffc38b" stroke-linecap="round" stroke-linejoin="round" stroke-width="5" d="M44.69 56.3l3.71-.55-3.71-25.23V5.01h-3.74l-.37-2.51-17.1 2.51H6.21v2.54L2.5 8.1l3.71 25.23v25.5h3.75l.36 2.51 17.1-2.51h17.27V56.3z"/><path fill="#ccc" stroke="#4d4d4d" stroke-miterlimit="10" stroke-width="1.5" d="M40.57246387 2.49908885l7.82501631 53.24811283-38.08100822 5.59615158L2.49145564 8.09524043z"/><path fill="#fff" stroke="#4d4d4d" stroke-miterlimit="10" stroke-width="1.5" d="M44.69 5.01v53.82H6.2V5.01z"/><path fill="none" stroke="#ff738e" stroke-miterlimit="10" stroke-width="1.5" d="M11.2 29.64l3.83 2.22 2.5 6.33 2.44-.81 4.75 4.68 3.11-5.25 3.81 4.71 3.33-.93L37.48 45"/><path fill="none" stroke="#4d4d4d" stroke-miterlimit="10" d="M39.23 44.98l-28.03.41V22.98"/><text transform="translate(10.2 15.83)" font-size="9.95621014" fill="#4d4d4d" font-family="FrankfurterPlain,Frankfurter" letter-spacing=".09999844em">NEWS</text><path fill="#fff" stroke="#4d4d4d" stroke-miterlimit="10" stroke-width=".5" d="M11.2 53.77h28.5M11.2 51.05h28.5M11.2 48.34h28.5M11.2 19.09h28.5"/></g></g></svg>