<?xml version="1.0" encoding="UTF-8"?>
<svg width="314px" height="330px" viewBox="0 0 314 330" version="1.1" xmlns="http://www.w3.org/2000/svg" xmlns:xlink="http://www.w3.org/1999/xlink">
    <!-- Generator: Sketch 49.3 (51167) - http://www.bohemiancoding.com/sketch -->
    <title>Group 2</title>
    <desc>Created with Sketch.</desc>
    <defs>
        <rect id="path-1" x="33.5" y="29.4" width="249" height="271.2"></rect>
        <filter x="-2.6%" y="-2.4%" width="106.8%" height="106.3%" filterUnits="objectBoundingBox" id="filter-2">
            <feOffset dx="2" dy="2" in="SourceAlpha" result="shadowOffsetOuter1"></feOffset>
            <feGaussianBlur stdDeviation="2.5" in="shadowOffsetOuter1" result="shadowBlurOuter1"></feGaussianBlur>
            <feColorMatrix values="0 0 0 0 0.406436012   0 0 0 0 0.406436012   0 0 0 0 0.406436012  0 0 0 0.5 0" type="matrix" in="shadowBlurOuter1"></feColorMatrix>
        </filter>
    </defs>
    <g id="Page-1" stroke="none" stroke-width="1" fill="none" fill-rule="evenodd">
        <g id="Group-2" transform="translate(-1.000000, 0.000000)" fill-rule="nonzero">
            <rect id="Rectangle-path" fill="#E6E9EE" transform="translate(157.985222, 165.014264) rotate(-164.013678) translate(-157.985222, -165.014264) " x="33.4922799" y="29.4221385" width="248.985885" height="271.184251"></rect>
            <g id="Rectangle-path">
                <use fill="black" fill-opacity="1" filter="url(#filter-2)" xlink:href="#path-1"></use>
                <use fill="#FFFFFF" fill-rule="evenodd" xlink:href="#path-1"></use>
            </g>
            <g id="Group" transform="translate(65.000000, 55.000000)" fill="#324A5E">
                <path d="M46.1,44.6 L36.2,44.6 L18.3,17.3 C17.2,15.7 16.5,14.5 16.1,13.7 L16,13.7 C16.2,15.2 16.2,17.6 16.2,20.7 L16.2,44.6 L7,44.6 L7,1.2 L17.5,1.2 L34.7,27.6 C35.5,28.8 36.2,30 36.9,31.1 L37,31.1 C36.8,30.1 36.8,28.1 36.8,25.1 L36.8,1.1 L46,1.1 L46,44.6 L46.1,44.6 Z" id="Shape"></path>
                <polygon id="Shape" points="82.1 44.6 56.1 44.6 56.1 1.2 81.1 1.2 81.1 9.2 65.8 9.2 65.8 18.9 80 18.9 80 26.8 65.8 26.8 65.8 36.7 82.1 36.7 82.1 44.6"></polygon>
                <path d="M145.9,1.2 L134.4,44.6 L123.6,44.6 L116.4,16.7 C116,15.2 115.8,13.6 115.7,11.8 L115.6,11.8 C115.4,13.8 115.2,15.4 114.8,16.7 L107.4,44.6 L96,44.6 L84.6,1.2 L95.3,1.2 L101.4,30.1 C101.7,31.3 101.9,33 102,35.1 L102.2,35.1 C102.3,33.5 102.6,31.8 103.1,30 L111,1.2 L121.5,1.2 L128.6,30.4 C128.9,31.5 129.1,33 129.3,35.1 L129.4,35.1 C129.5,33.5 129.7,31.9 130,30.3 L136,1.3 L145.9,1.3 L145.9,1.2 Z" id="Shape"></path>
                <path d="M149.4,43 L149.4,33.3 C151.2,34.8 153.1,35.9 155.1,36.6 C157.2,37.3 159.2,37.7 161.3,37.7 C162.5,37.7 163.6,37.6 164.5,37.4 C165.4,37.2 166.2,36.9 166.8,36.5 C167.4,36.1 167.9,35.6 168.2,35.1 C168.5,34.6 168.7,34 168.7,33.4 C168.7,32.6 168.5,31.8 168,31.1 C167.5,30.4 166.9,29.8 166,29.3 C165.2,28.7 164.2,28.2 163,27.7 C161.8,27.2 160.6,26.6 159.3,26.1 C155.9,24.7 153.4,23 151.7,20.9 C150,18.9 149.2,16.4 149.2,13.5 C149.2,11.2 149.7,9.3 150.6,7.7 C151.5,6.1 152.7,4.7 154.3,3.7 C155.9,2.7 157.7,1.9 159.7,1.4 C161.8,0.9 163.9,0.7 166.2,0.7 C168.5,0.7 170.5,0.8 172.2,1.1 C173.9,1.4 175.6,1.8 177,2.4 L177,11.5 C176.3,11 175.5,10.6 174.6,10.2 C173.7,9.8 172.9,9.5 172,9.2 C171.1,8.9 170.2,8.8 169.3,8.6 C168.4,8.5 167.5,8.4 166.7,8.4 C165.6,8.4 164.6,8.5 163.7,8.7 C162.8,8.9 162,9.2 161.4,9.6 C160.8,10 160.3,10.4 159.9,11 C159.6,11.5 159.4,12.1 159.4,12.8 C159.4,13.5 159.6,14.2 160,14.8 C160.4,15.4 160.9,15.9 161.6,16.4 C162.3,16.9 163.2,17.4 164.2,17.9 C165.2,18.4 166.4,18.9 167.6,19.4 C169.3,20.1 170.9,20.9 172.3,21.7 C173.7,22.5 174.9,23.4 175.9,24.5 C176.9,25.5 177.6,26.7 178.2,28 C178.7,29.3 179,30.9 179,32.6 C179,35 178.5,37.1 177.6,38.7 C176.7,40.3 175.4,41.7 173.9,42.7 C172.3,43.7 170.5,44.5 168.4,44.9 C166.3,45.3 164.1,45.6 161.8,45.6 C159.4,45.6 157.2,45.4 155,45 C152.8,44.4 150.9,43.8 149.4,43 Z" id="Shape"></path>
                <rect id="Rectangle-path" x="0.8" y="70.5" width="184.4" height="11.2"></rect>
                <rect id="Rectangle-path" x="0.8" y="104.4" width="184.4" height="11.2"></rect>
                <rect id="Rectangle-path" x="0.8" y="138.3" width="98.2" height="11.2"></rect>
                <rect id="Rectangle-path" x="0.8" y="172.1" width="98.2" height="11.2"></rect>
                <rect id="Rectangle-path" x="0.8" y="206" width="98.2" height="11.2"></rect>
            </g>
            <rect id="Rectangle-path" fill="#FFD05B" x="180.2" y="193.3" width="70" height="79"></rect>
        </g>
    </g>
</svg>