<?xml version="1.0" encoding="UTF-8"?>
<svg width="43px" height="43px" viewBox="0 0 43 43" version="1.1" xmlns="http://www.w3.org/2000/svg" xmlns:xlink="http://www.w3.org/1999/xlink">
    <!-- Generator: Sketch 49.3 (51167) - http://www.bohemiancoding.com/sketch -->
    <title>Group 4</title>
    <desc>Created with Sketch.</desc>
    <defs></defs>
    <g id="Page-1" stroke="none" stroke-width="1" fill="none" fill-rule="evenodd">
        <g id="Group-4">
            <g id="Group-Copy-2">
                <circle id="Oval-2-Copy" stroke="#979797" fill="#FFFFFF" cx="21" cy="21" r="15"></circle>
                <g id="share-(1)" fill="#FF738E" fill-rule="nonzero">
                    <path d="M21.4994267,0 C9.62583667,0 0.000143333333,9.62641 0.000143333333,21.49957 C0.000143333333,33.37273 9.62583667,43 21.4994267,43 C33.3730167,43 42.9998567,33.3733033 42.9998567,21.49957 C42.9998567,9.62583667 33.3730167,0 21.4994267,0 Z M19.10834,21.49957 C19.10834,21.9486333 19.0264967,22.37548 18.88345,22.77538 L24.88453,25.6624 C25.5752533,24.9063167 26.5659733,24.43045 27.6703567,24.43045 C29.7562867,24.43045 31.44762,26.12121 31.44762,28.2069967 C31.44762,30.2932133 29.7558567,31.98469 27.6694967,31.98469 C25.5835667,31.98469 23.8913733,30.2932133 23.8913733,28.2069967 C23.8913733,28.0070467 23.9121567,27.8118267 23.94197,27.6207633 L17.55389,24.54827 C16.9293867,25.0052167 16.1621233,25.2776933 15.3293567,25.2776933 C13.24314,25.2776933 11.5516633,23.5869333 11.5516633,21.4992833 C11.5516633,19.4137833 13.24314,17.7227367 15.3293567,17.7227367 C16.1621233,17.7227367 16.9296733,17.9952133 17.55432,18.45173 L23.94283,15.3799533 C23.91273,15.18846 23.8922333,14.9941 23.8922333,14.79372 C23.8922333,12.7070733 25.5839967,11.0160267 27.6703567,11.0160267 C29.7562867,11.0160267 31.44805,12.7070733 31.44805,14.79372 C31.44805,16.8799367 29.7562867,18.5714133 27.6703567,18.5714133 C26.56669,18.5714133 25.5752533,18.0944 24.88453,17.3390333 L18.88345,20.2249067 C19.02664,20.6242333 19.10834,21.0520833 19.10834,21.49957 Z" id="Shape"></path>
                </g>
            </g>
        </g>
    </g>
</svg>