<svg viewBox="0 0 48 37" xmlns="http://www.w3.org/2000/svg"><g id="Page-1" fill="none" fill-rule="evenodd"><g id="Group-2" fill="#FFF" fill-rule="nonzero"><g id="Group"><path d="M30.52.76c-.124289-.06945253-.275711-.06945253-.4 0-7.236109 4.4638936-15.5678006 6.83498158-24.07 6.85-.2209139 0-.4.1790861-.4.4v15.08c.00542666.216999.18293314.3900678.4.39 1.37 0 2.72.07 4.08.19v10.62c-.14619646 1.3467255.8238925 2.558219 2.17 2.71 1.3331932-.1520029 2.2986384-1.3443499 2.17-2.68v-10c5.5363611 1.0703791 10.8365421 3.1227175 15.65 6.06.0634841.0381688.1359337.0588687.21.06.0626115.0135228.1273885.0135228.19 0 .1217989-.0702963.1977358-.1993891.2-.34V1.11c-.0026638-.14312672-.0780432-.27504067-.2-.35z" id="Shape"/><rect id="Rectangle-path" x=".99" y="7.62" width="2.74" height="15.86" rx=".39"/><path d="M43.66 15.55l3.6-3.55c.684833-.6848331.684833-1.7951669 0-2.47999995-.6848331-.68483307-1.7951669-.68483309-2.48-5e-8l-3.59 3.6-3.6-3.6c-.6848331-.68207161-1.7929283-.67983301-2.4749999.00500006C34.4329284 10.2098331 34.435167 11.3179283 35.12 12l3.59 3.59-3.59 3.6c-.6110134.69297-.5780942 1.7415378.075184 2.394816.6532782.6532782 1.701846.6861974 2.394816.075184l3.6-3.66 3.59 3.59c.6820717.6848331 1.7901669.6870716 2.475.005.684833-.6820717.6870716-1.7901669.005-2.475l-3.6-3.57z" id="Shape"/></g></g></g></svg>