<svg viewBox="0 0 48 37" xmlns="http://www.w3.org/2000/svg"><g id="Page-1" fill="none" fill-rule="evenodd"><g id="Group" fill="#FFF" fill-rule="nonzero"><path d="M30.52.76c-.124289-.06945253-.275711-.06945253-.4 0-7.236109 4.4638936-15.5678006 6.83498158-24.07 6.85-.2209139 0-.4.1790861-.4.4v15.08c.00542666.216999.18293314.3900678.4.39 1.37 0 2.72.07 4.08.19v10.62c-.14619646 1.3467255.8238925 2.558219 2.17 2.71 1.3331932-.1520029 2.2986384-1.3443499 2.17-2.68v-10c5.5363611 1.0703791 10.8365421 3.1227175 15.65 6.06.0634841.0381688.1359337.0588687.21.06.0626115.0135228.1273885.0135228.19 0 .1217989-.0702963.1977358-.1993891.2-.34V1.11c-.0026638-.14312672-.0780432-.27504067-.2-.35z" id="Shape"/><rect id="Rectangle-path" x=".99" y="7.62" width="2.74" height="15.86" rx=".39"/><path d="M37.22 8.57c-.4751632-.41978709-1.1381859-.55418979-1.7393138-.35257989-.6011279.20160989-1.0490354.70860304-1.175 1.33000002-.1259647.62139697.0891505 1.26279277.5643138 1.68257987 1.2398425 1.0934383 1.9501181 2.6668766 1.9501181 4.32 0 1.6531234-.7102756 3.2265617-1.9501181 4.32-.3560727.3103894-.5733056.7502298-.6033556 1.2216387-.0300499.4714089.1295764.9352722.4433556 1.2883613.3117877.3546468.7523618.5700037 1.2237347.5981734.4713728.0281696.9344595-.1331836 1.2862653-.4481734 2.0159546-1.7677289 3.171914-4.3187804 3.171914-7 0-2.6812196-1.1559594-5.2322711-3.171914-7v.04z" id="Shape"/><path d="M43.1 3.16c-.6166102-.72566855-1.6951344-.83751004-2.4475249-.25380499C39.9000847 3.48990005 39.7403567 4.56237849 40.29 5.34c4.6654623 6.0109347 4.6654623 14.4190653 0 20.43-.2885691.3704968-.4171024.8409547-.3570049 1.3067103.0600975.4657557.3038411.8881778.6770049 1.1732897.3052355.2477279.6868922.3820145 1.08.38.5511645-.0006549 1.0712957-.2551872 1.41-.69 5.6543388-7.2923382 5.6543388-17.4876618 0-24.78z" id="Shape"/></g></g></svg>