<svg width="43" height="43" viewBox="0 0 43 43" xmlns="http://www.w3.org/2000/svg"><g id="Page-1" fill="none" fill-rule="evenodd"><g id="Artboard-Copy-12" transform="translate(-190 -329)" fill-rule="nonzero"><g id="twitter" transform="translate(190 329)"><circle id="Oval" fill="#55ACEE" cx="21.3474071" cy="21.3470265" r="21.3470265"/><path d="M34.4232124 15.3414867c-.9147965.405646-1.8988496.6800089-2.9308496.8025398 1.0536903-.6313008 1.8623186-1.6301946 2.2439912-2.8223982-.9859558.5848761-2.0784602 1.0091682-3.2402213 1.2378673-.9307787-.9912832-2.2569292-1.6107876-3.7253982-1.6107876-2.8174513 0-5.1025398 2.2850885-5.1025398 5.1025398 0 .399938.0452832.7892212.1328053 1.1629026-4.2406372-.2127168-8.0006637-2.2439911-10.5174956-5.332-.4391327.7534514-.6910442 1.6305753-.6910442 2.5655399 0 1.7698495.9014779 3.3323097 2.2698672 4.2471062-.8360265-.0262567-1.6233451-.2557169-2.3109646-.6389115-.0003805.0216902-.0003805.0433805-.0003805.0646902 0 2.4723098 1.7595752 4.5344071 4.0933717 5.0028407-.4277168.1172036-.8794071.1792301-1.3440354.1792301-.3295398 0-.6488053-.0315841-.9600797-.0909469.6491859 2.026708 2.5331947 3.5020266 4.766531 3.5435044-1.7466372 1.36877-3.9464867 2.1842478-6.3377434 2.1842478-.4109734 0-.81814154-.0239734-1.21655747-.0715398 2.25692917 1.4483009 4.93967257 2.2926991 7.82105307 2.2926991 9.385416 0 14.5180177-7.7750088 14.5180177-14.5183982 0-.2210885-.0049469-.4414159-.0148407-.6598407.9977522-.7192036 1.8626991-1.6176372 2.5465133-2.640885z" id="Shape" fill="#F1F2F2"/></g></g></g></svg>