<svg width="44" height="44" viewBox="0 0 44 44" xmlns="http://www.w3.org/2000/svg"><g id="Page-1" fill="none" fill-rule="evenodd"><g id="Artboard-Copy-12" transform="translate(-88 -329)"><g id="Group-5" transform="translate(88.178721 329.429321)"><circle id="Oval-4" fill="#1BD741" cx="21.5" cy="21.5" r="21.5"/><g id="Group" transform="translate(6.688889 5.255556)" fill="#FFF" fill-rule="nonzero"><path d="M.04683566 30.2829516l2.11642193-7.516839C.80227399 20.4540048.08570736 17.8233388.08570736 15.1209022c0-8.3209143 6.7695542-15.0904685 15.09046854-15.0904685 8.3209143 0 15.0903737 6.7695542 15.0903737 15.0904685s-6.7694594 15.0904685-15.0903737 15.0904685c-2.5927425 0-5.1315386-.6636631-7.3774697-1.9238647L.04683566 30.2829516zm8.14817227-4.7408307l.46190959.2820569c1.95818568 1.195447 4.21255468 1.8273492 6.51925838 1.8273492 6.9093975 0 12.53053-5.6212273 12.53053-12.5306248s-5.6211325-12.53062475-12.53053-12.53062475c-6.90939753 0-12.53062479 5.62122725-12.53062479 12.53062475 0 2.4074857.68423675 4.7453815 1.9785696 6.7609266l.31106842.4843793-1.21877005 4.3287906 4.47858885-1.1528778z" id="Shape"/><path d="M10.9370746 8.09735464l-.9791876-.05337749c-.30756049-.0167812-.60924282.08599179-.84171455.28793502-.4747088.41222965-1.23374988 1.20919434-1.46688528 2.24773243-.3476647 1.5485159.18961806 3.4446964 1.58018207 5.340877 1.39056396 1.8961805 3.98197916 4.9300694 8.56438386 6.2258244 1.4766507.4175389 2.6382509.1360509 3.5344806-.4372592.7098352-.4540405 1.1991446-1.1828375 1.3754894-2.0067279l.1563401-.7302192c.0496799-.2320925-.0681677-.4675981-.2837635-.5669579l-3.3093091-1.5253825c-.2148372-.0989806-.4695891-.0364067-.614078.1508412l-1.2991682 1.6841875c-.0981273.1272338-.2661289.1776722-.4178233.1243895-.889688-.3126802-3.8699149-1.560841-5.505181-4.7107762-.0709172-.1366198-.0532827-.3024408.0473097-.4189611l1.241619-1.4363567c.1268545-.1466696.1588999-.3528792.0826735-.5311202l-1.4264967-3.33737261c-.075942-.17767211-.2461242-.29675225-.438871-.30727605z" id="Shape"/></g></g></g></g></svg>